<?xml version="1.0" encoding="utf-8"?>
<!-- Generator: Adobe Illustrator 16.0.0, SVG Export Plug-In . SVG Version: 6.00 Build 0)  -->
<!DOCTYPE svg PUBLIC "-//W3C//DTD SVG 1.1//EN" "http://www.w3.org/Graphics/SVG/1.1/DTD/svg11.dtd">
<svg version="1.1" id="Layer_1" xmlns="http://www.w3.org/2000/svg" xmlns:xlink="http://www.w3.org/1999/xlink" x="0px" y="0px"
	 width="600px" height="400px" viewBox="0 0 600 400" enable-background="new 0 0 600 400" xml:space="preserve">
<g id="Layer_2">
	<rect y="253" fill="#FFFFFF" width="243" height="148"/>
</g>
<g>
	<rect x="359.654" y="193" fill="#FFFFFF" width="98.346" height="208"/>
	<rect x="428" y="182" fill="#253A7C" width="180" height="95"/>
	<rect x="434" y="308" fill="#0044B7" width="168" height="92"/>
	<rect x="428" y="158" fill="#FFC915" width="180" height="24"/>
	<rect x="428" y="277" fill="#FFC915" width="180" height="20"/>
	<g>
		<circle fill="none" stroke="#FFC915" stroke-width="0.3285" stroke-miterlimit="10" cx="504.18" cy="269.483" r="4.188"/>
		<circle fill="none" stroke="#FFC915" stroke-width="0.3285" stroke-miterlimit="10" cx="518.309" cy="269.483" r="4.19"/>
		<circle fill="none" stroke="#FFC915" stroke-width="0.3285" stroke-miterlimit="10" cx="532.764" cy="269.483" r="4.188"/>
	</g>
	<circle fill="#FFC915" cx="504.103" cy="269.553" r="2.879"/>
	<g>
		<g>
			<g>
				<g>
					<defs>
						<rect id="SVGID_1_" x="572.649" y="162.492" width="10.479" height="12.36"/>
					</defs>
					<clipPath id="SVGID_2_">
						<use xlink:href="#SVGID_1_"  overflow="visible"/>
					</clipPath>
					<path clip-path="url(#SVGID_2_)" fill="#253A7C" d="M577.841,169.144h0.082c0.748-0.014,1.354-0.276,1.799-0.778
						c0.98-1.107,0.819-3.004,0.798-3.185c-0.06-1.359-0.702-2.01-1.232-2.313c-0.396-0.227-0.856-0.351-1.372-0.36h-0.046
						c-0.281,0-0.837,0.046-1.369,0.349c-0.535,0.304-1.188,0.953-1.251,2.323c-0.021,0.181-0.185,2.078,0.8,3.185
						C576.49,168.868,577.094,169.13,577.841,169.144L577.841,169.144z M575.927,165.245c0-0.009,0.002-0.016,0.002-0.021
						c0.086-1.828,1.382-2.023,1.938-2.023h0.032c0.687,0.015,1.855,0.295,1.936,2.023c0,0.007,0,0.015,0.003,0.021
						c0.002,0.017,0.18,1.75-0.63,2.663c-0.321,0.364-0.749,0.542-1.313,0.547h-0.026c-0.562-0.006-0.99-0.184-1.311-0.547
						C575.75,167.001,575.923,165.26,575.927,165.245L575.927,165.245z"/>
				</g>
			</g>
			<g>
				<g>
					<defs>
						<rect id="SVGID_3_" x="572.649" y="162.492" width="10.479" height="12.36"/>
					</defs>
					<clipPath id="SVGID_4_">
						<use xlink:href="#SVGID_3_"  overflow="visible"/>
					</clipPath>
					<path clip-path="url(#SVGID_4_)" fill="#253A7C" d="M583.123,172.29v-0.008c0-0.021-0.004-0.041-0.004-0.063
						c-0.018-0.505-0.049-1.686-1.154-2.063c-0.009-0.003-0.019-0.004-0.027-0.008c-1.146-0.293-2.104-0.956-2.111-0.963
						c-0.159-0.109-0.371-0.072-0.48,0.085c-0.107,0.153-0.069,0.369,0.084,0.478c0.044,0.031,1.059,0.736,2.326,1.063
						c0.594,0.212,0.661,0.848,0.68,1.428c0,0.021,0,0.043,0.006,0.065c0.001,0.229-0.016,0.583-0.059,0.787
						c-0.411,0.235-2.03,1.045-4.492,1.045c-2.451,0-4.084-0.813-4.497-1.048c-0.043-0.203-0.063-0.559-0.058-0.789
						c0-0.02,0.004-0.041,0.004-0.063c0.021-0.581,0.086-1.217,0.683-1.427c1.268-0.326,2.279-1.035,2.325-1.063
						c0.155-0.11,0.193-0.324,0.083-0.48c-0.105-0.154-0.322-0.193-0.479-0.083c-0.008,0.008-0.961,0.67-2.114,0.964
						c-0.01,0.001-0.019,0.005-0.021,0.007c-1.109,0.38-1.144,1.561-1.158,2.064c0,0.021,0,0.041-0.003,0.063v0.008
						c-0.002,0.132-0.006,0.813,0.13,1.154c0.025,0.068,0.072,0.123,0.134,0.162c0.076,0.05,1.909,1.218,4.979,1.218
						c3.063,0,4.897-1.17,4.977-1.218c0.059-0.039,0.107-0.094,0.134-0.162C583.128,173.104,583.126,172.422,583.123,172.29
						L583.123,172.29z"/>
				</g>
			</g>
		</g>
	</g>
	
		<rect x="0.02" y="252.686" fill="none" stroke="#3AAED9" stroke-width="0.8495" stroke-miterlimit="10" width="80.715" height="146.277"/>
	<path id="XMLID_214_" fill="#343433" d="M59.28,348.557l-5.008-3.861l-2.073-12.396c-0.002-0.016-0.008-0.025-0.011-0.043
		c-0.005-0.02-0.01-0.037-0.017-0.055c-0.012-0.046-0.029-0.086-0.05-0.123c-0.006-0.014-0.006-0.021-0.011-0.031
		c-0.004-0.002-0.006-0.004-0.009-0.008c-0.029-0.053-0.065-0.098-0.107-0.141c-0.007-0.008-0.015-0.012-0.021-0.021
		c-0.036-0.03-0.075-0.063-0.117-0.09c-0.013-0.006-0.025-0.013-0.038-0.021c-0.045-0.024-0.093-0.045-0.143-0.06
		c-0.007-0.004-0.012-0.006-0.02-0.008c-0.057-0.017-0.118-0.022-0.179-0.022c-0.004,0-0.007,0-0.009,0h-6.739
		c1.705-1.313,2.808-3.371,2.808-5.685c0-3.951-3.213-7.164-7.164-7.164s-7.164,3.213-7.164,7.164c0,2.313,1.103,4.371,2.808,5.685
		h-6.739c-0.005,0-0.009,0-0.015,0c-0.008,0-0.017,0-0.026,0c-0.053,0.002-0.103,0.012-0.15,0.022c-0.004,0-0.007,0.004-0.01,0.004
		c-0.054,0.017-0.104,0.037-0.151,0.063c-0.015,0.008-0.027,0.019-0.042,0.026c-0.037,0.022-0.072,0.047-0.104,0.076
		c-0.012,0.014-0.024,0.022-0.035,0.035c-0.04,0.04-0.077,0.086-0.105,0.137c-0.001,0-0.002,0-0.003,0.002
		c-0.003,0.009-0.005,0.013-0.008,0.021c-0.023,0.043-0.043,0.093-0.058,0.142c-0.006,0.017-0.009,0.033-0.013,0.053
		c-0.01,0.039-0.015,0.08-0.017,0.125c-0.001,0.019-0.003,0.033-0.003,0.054c0,0.008-0.002,0.017-0.002,0.022l0.672,12.201
		l-7.614,3.821c-0.365,0.183-0.514,0.629-0.331,0.996c0.132,0.256,0.392,0.405,0.664,0.405c0.111,0,0.226-0.024,0.333-0.077
		l8.047-4.039c0.264-0.134,0.425-0.41,0.407-0.705l-0.526-9.586l5.69,9.856l-11.854,5.633c-0.262,0.123-0.428,0.396-0.421,0.685
		c0.006,0.293,0.183,0.554,0.449,0.668l16.031,6.802c0.096,0.043,0.193,0.06,0.29,0.06c0.287,0,0.563-0.168,0.682-0.451
		c0.161-0.377-0.015-0.812-0.393-0.972L26.149,351.6l10.471-4.979l3.11,5.387c0.132,0.229,0.377,0.369,0.642,0.369
		c0.266,0,0.509-0.143,0.642-0.369l3.229-5.594l10.239,4.867l-14.227,2.258c-0.405,0.063-0.681,0.443-0.616,0.85
		c0.059,0.363,0.373,0.625,0.732,0.625c0.037,0,0.076-0.004,0.116-0.012l16.588-2.635c0.32-0.051,0.57-0.305,0.616-0.623
		c0.047-0.322-0.121-0.637-0.414-0.775l-12.292-5.842l6.092-10.551l1.78,10.65c0.031,0.186,0.129,0.352,0.278,0.465l5.236,4.039
		c0.135,0.104,0.295,0.154,0.452,0.154c0.222,0,0.441-0.1,0.586-0.289C59.663,349.273,59.604,348.805,59.28,348.557z
		 M34.691,325.994c0-3.133,2.549-5.684,5.682-5.684s5.683,2.551,5.683,5.684c0,3.135-2.55,5.684-5.683,5.684
		S34.691,329.129,34.691,325.994z M40.373,350.152l-9.813-16.996h19.624L40.373,350.152z"/>
	<rect id="XMLID_295_" y="253.146" fill="#50C0E8" width="80.771" height="13.68"/>
	<path id="XMLID_293_" fill="#FFFFFF" d="M7.936,260.007l2.246-1.889c0.113-0.136,0.098-0.333-0.036-0.446
		c-0.132-0.113-0.331-0.097-0.445,0.036l-2.688,2.408c-0.004,0.005-0.007,0.01-0.01,0.017c-0.006,0.008-0.011,0.014-0.015,0.021
		c-0.007,0.011-0.012,0.021-0.017,0.029c-0.004,0.008-0.008,0.014-0.01,0.022c-0.005,0.01-0.009,0.021-0.012,0.035
		c-0.002,0.005-0.004,0.014-0.006,0.02c-0.004,0.021-0.006,0.039-0.006,0.058c0,0.002,0,0.002,0,0.004c0,0.003,0,0.004,0,0.004
		c0.001,0.019,0.002,0.035,0.006,0.055c0.002,0.01,0.005,0.018,0.007,0.023c0.003,0.011,0.006,0.021,0.01,0.031
		c0.004,0.01,0.008,0.019,0.012,0.024c0.004,0.009,0.009,0.021,0.015,0.024c0.005,0.011,0.011,0.019,0.018,0.024
		c0.003,0.007,0.005,0.011,0.008,0.015l2.688,2.281c0.063,0.074,0.151,0.111,0.242,0.111c0.072,0,0.144-0.025,0.203-0.074
		c0.134-0.113,0.149-0.313,0.036-0.445l-2.245-1.763l-0.285-0.356L7.936,260.007z"/>
	<rect id="XMLID_291_" x="0.008" y="287.553" fill="#50C0E8" width="56.198" height="14.945"/>
	<rect id="XMLID_290_" x="56.206" y="287.553" fill="#3AAED9" width="24.778" height="14.945"/>
	<g id="XMLID_283_">
		<path id="XMLID_286_" fill="#FFFFFF" d="M69.71,291.645c-0.074-0.049-0.167-0.049-0.241,0l-2.659,1.686h-1.703
			c-0.404,0-0.734,0.359-0.734,0.807v1.781c0,0.443,0.33,0.809,0.734,0.809h1.703l2.659,1.684c0.037,0.025,0.078,0.037,0.119,0.037
			c0.043,0,0.085-0.012,0.122-0.037c0.075-0.045,0.121-0.135,0.121-0.23v-6.303C69.831,291.779,69.785,291.691,69.71,291.645z
			 M69.348,297.719l-2.353-1.49c-0.037-0.021-0.078-0.037-0.122-0.037h-1.767c-0.138,0-0.251-0.123-0.251-0.273v-1.779
			c0-0.152,0.113-0.275,0.251-0.275h1.767c0.044,0,0.085-0.014,0.122-0.035l2.353-1.49V297.719z"/>
		<path id="XMLID_285_" fill="#FFFFFF" d="M72.043,292.199c-0.12-0.08-0.285-0.053-0.368,0.07c-0.082,0.119-0.051,0.285,0.072,0.367
			c0.79,0.537,1.264,1.434,1.264,2.387c0,0.957-0.474,1.852-1.264,2.391c-0.123,0.082-0.154,0.246-0.072,0.367
			c0.052,0.076,0.137,0.117,0.221,0.117c0.05,0,0.103-0.018,0.147-0.047c0.939-0.639,1.498-1.693,1.498-2.828
			C73.541,293.895,72.982,292.838,72.043,292.199z"/>
		<path id="XMLID_284_" fill="#FFFFFF" d="M70.578,293.363c-0.142-0.037-0.288,0.047-0.325,0.186
			c-0.038,0.143,0.045,0.289,0.186,0.326c0.517,0.143,0.878,0.615,0.878,1.148c0,0.537-0.361,1.012-0.878,1.15
			c-0.141,0.037-0.224,0.184-0.186,0.324c0.032,0.119,0.14,0.195,0.256,0.195c0.021,0,0.046-0.004,0.069-0.012
			c0.745-0.203,1.268-0.885,1.268-1.662C71.846,294.252,71.323,293.568,70.578,293.363z"/>
	</g>
	<path id="XMLID_253_" fill="#E8573F" d="M69.9,390.92H13.194c-2.301,0-4.166-1.863-4.166-4.166v-3.957
		c0-2.301,1.865-4.166,4.166-4.166H69.9c2.299,0,4.165,1.865,4.165,4.166v3.957C74.065,389.057,72.199,390.92,69.9,390.92z"/>
	
		<text id="XMLID_17_" transform="matrix(1 0 0 1 24.1377 386.6563)" fill="#FFFFFF" font-family="'Bariol-Regular'" font-size="6.0591">start oefening</text>
	
		<rect x="81.119" y="252.848" fill="none" stroke="#3AAED9" stroke-width="0.8498" stroke-miterlimit="10" width="80.748" height="146.344"/>
	<path id="XMLID_118_" fill="#50C0E8" d="M150.146,389.258c0.026-0.086,0.057-0.17,0.076-0.256c0.09-0.373,0.177-0.746,0.266-1.137
		c0.146,0.031,0.287,0.061,0.427,0.092c0.123,0.029,0.246,0.057,0.367,0.086c0.055,0.014,0.085,0,0.117-0.051
		c0.16-0.232,0.32-0.463,0.49-0.689c0.047-0.061,0.063-0.098,0.016-0.166c-0.141-0.217-0.273-0.438-0.415-0.668
		c0.426-0.264,0.845-0.523,1.274-0.789c0.085,0.135,0.166,0.262,0.247,0.395c0.06,0.098,0.123,0.191,0.179,0.293
		c0.029,0.051,0.057,0.068,0.116,0.049c0.281-0.094,0.571-0.131,0.865-0.143c0.064-0.002,0.089-0.027,0.103-0.092
		c0.05-0.232,0.108-0.469,0.163-0.701c0.006-0.021,0.015-0.045,0.024-0.078c0.481,0.113,0.959,0.227,1.451,0.344
		c-0.016,0.078-0.03,0.148-0.047,0.225c-0.045,0.189-0.091,0.379-0.132,0.568c-0.006,0.027,0.004,0.084,0.024,0.098
		c0.289,0.154,0.554,0.348,0.792,0.576c0.252-0.154,0.497-0.307,0.756-0.467c0.063,0.104,0.129,0.197,0.19,0.297
		c0.187,0.299,0.369,0.602,0.558,0.896c0.04,0.062,0.034,0.09-0.03,0.129c-0.207,0.123-0.41,0.255-0.615,0.377
		c-0.05,0.031-0.058,0.062-0.046,0.121c0.052,0.276,0.101,0.562,0.14,0.843c0.011,0.073,0.026,0.106,0.104,0.123
		c0.219,0.045,0.436,0.098,0.653,0.149c0.035,0.008,0.071,0.021,0.117,0.032c-0.114,0.486-0.227,0.963-0.339,1.451
		c-0.065-0.013-0.122-0.021-0.178-0.035c-0.204-0.047-0.407-0.094-0.61-0.146c-0.056-0.014-0.087-0.008-0.117,0.045
		c-0.141,0.267-0.311,0.513-0.521,0.729c-0.02,0.021-0.017,0.089,0.001,0.117c0.136,0.228,0.277,0.449,0.425,0.688
		c-0.424,0.263-0.846,0.522-1.275,0.791c-0.111-0.181-0.221-0.347-0.323-0.521c-0.135-0.229-0.131-0.224-0.396-0.17
		c-0.221,0.043-0.447,0.065-0.672,0.09c-0.069,0.011-0.104,0.024-0.12,0.099c-0.057,0.254-0.119,0.508-0.184,0.776
		c-0.486-0.114-0.966-0.228-1.459-0.342c0.053-0.228,0.108-0.441,0.152-0.658c0.057-0.267,0.082-0.172-0.137-0.315
		c-0.191-0.125-0.374-0.269-0.552-0.41c-0.072-0.06-0.121-0.077-0.206-0.021c-0.189,0.13-0.39,0.242-0.582,0.367
		c-0.058,0.037-0.081,0.021-0.113-0.031c-0.245-0.396-0.491-0.793-0.745-1.199c0.162-0.104,0.323-0.205,0.484-0.309
		c0.088-0.055,0.215-0.094,0.249-0.176c0.032-0.072-0.042-0.188-0.056-0.287c-0.03-0.207-0.059-0.414-0.076-0.621
		c-0.006-0.073-0.028-0.104-0.098-0.121c-0.262-0.057-0.522-0.123-0.783-0.184C150.146,389.299,150.146,389.277,150.146,389.258z
		 M156.007,389.525c-0.002-0.98-0.773-1.754-1.753-1.758c-0.941-0.004-1.741,0.797-1.739,1.74c0.003,0.975,0.79,1.76,1.761,1.753
		C155.22,391.258,156.008,390.465,156.007,389.525z"/>
	
		<line id="XMLID_117_" fill="none" stroke="#E8573F" stroke-width="1.6996" stroke-miterlimit="10" x1="121.493" y1="387.652" x2="121.493" y2="262.943"/>
	
		<circle id="XMLID_116_" fill="#F26F54" stroke="#E8573F" stroke-width="1.6996" stroke-miterlimit="10" cx="121.838" cy="379.42" r="8.23"/>
	
		<circle id="XMLID_115_" fill="#FFFFFF" stroke="#E8573F" stroke-width="1.6996" stroke-miterlimit="10" cx="121.838" cy="351.023" r="8.231"/>
	
		<circle id="XMLID_114_" fill="#FFFFFF" stroke="#E8573F" stroke-width="1.6996" stroke-miterlimit="10" cx="121.838" cy="322.625" r="8.23"/>
	
		<circle id="XMLID_113_" fill="#FFFFFF" stroke="#E8573F" stroke-width="1.6996" stroke-miterlimit="10" cx="121.838" cy="294.229" r="8.231"/>
	
		<circle id="XMLID_112_" fill="#FFFFFF" stroke="#3AAED9" stroke-width="1.6996" stroke-miterlimit="10" cx="121.838" cy="265.832" r="8.23"/>
	<rect id="XMLID_21_" x="115.126" y="261.536" fill="none" width="13.197" height="11.048"/>
	<text transform="matrix(1 0 0 1 119.9932 265.9785)" fill="#000100" font-family="'Bariol-Regular'" font-size="6.2398">5</text>
	<text transform="matrix(1 0 0 1 117.6963 270.5605)" fill="#000100" font-family="'Bariol-Regular'" font-size="4.3679">mrt</text>
	<rect id="XMLID_107_" x="80.984" y="252.259" fill="#50C0E8" width="81.47" height="10.685"/>
	<rect id="XMLID_101_" x="80.984" y="252.259" fill="#3AAED9" width="25.813" height="10.685"/>
	<rect id="XMLID_14_" x="87.221" y="255.701" fill="none" width="71.154" height="5.835"/>
	<rect id="XMLID_11_" x="115.126" y="374.449" fill="none" width="13.197" height="11.047"/>
	<text transform="matrix(1 0 0 1 120.6299 378.8906)" fill="#FFFFFF" font-family="'Bariol-Regular'" font-size="6.2398">1</text>
	<text transform="matrix(1 0 0 1 117.6963 383.4736)" fill="#FFFFFF" font-family="'Bariol-Regular'" font-size="4.3679">mrt</text>
	<rect id="XMLID_8_" x="115.126" y="346.428" fill="none" width="13.197" height="11.047"/>
	<text transform="matrix(1 0 0 1 120.0645 350.8691)" fill="#000100" font-family="'Bariol-Regular'" font-size="6.2398">2</text>
	<text transform="matrix(1 0 0 1 117.6963 355.4541)" fill="#000100" font-family="'Bariol-Regular'" font-size="4.3679">mrt</text>
	<rect id="XMLID_5_" x="115.126" y="317.484" fill="none" width="13.197" height="11.049"/>
	<text transform="matrix(1 0 0 1 120.0332 321.9258)" fill="#000100" font-family="'Bariol-Regular'" font-size="6.2398">3</text>
	<text transform="matrix(1 0 0 1 117.6963 326.5107)" fill="#000100" font-family="'Bariol-Regular'" font-size="4.3679">mrt</text>
	<rect id="XMLID_2_" x="115.126" y="289.219" fill="none" width="13.197" height="11.047"/>
	<text transform="matrix(1 0 0 1 120.04 293.6621)" fill="#000100" font-family="'Bariol-Regular'" font-size="6.2398">4</text>
	<text transform="matrix(1 0 0 1 117.6963 298.2451)" fill="#000100" font-family="'Bariol-Regular'" font-size="4.3679">mrt</text>
	<rect id="XMLID_331_" x="162.688" y="252.336" fill="#50C0E8" width="82.414" height="13.962"/>
	<path id="XMLID_528_" fill="#50C0E8" d="M233.847,339.916h-60.854c-1.521,0-2.754-1.231-2.754-2.75v-57.414
		c0-1.52,1.233-2.752,2.754-2.752h60.854c1.521,0,2.753,1.232,2.753,2.752v57.414C236.599,338.685,235.368,339.916,233.847,339.916z
		"/>
	<g id="XMLID_491_">
		
			<line id="XMLID_521_" fill="none" stroke="#FFFFFF" stroke-width="1.7025" stroke-miterlimit="10" x1="170.286" y1="308.727" x2="236.599" y2="308.727"/>
		
			<line id="XMLID_493_" fill="none" stroke="#FFFFFF" stroke-width="1.7025" stroke-miterlimit="10" x1="170.286" y1="324.59" x2="236.599" y2="324.59"/>
		
			<line id="XMLID_492_" fill="none" stroke="#FFFFFF" stroke-width="1.7025" stroke-miterlimit="10" x1="170.286" y1="292.867" x2="236.599" y2="292.867"/>
	</g>
	
		<rect x="162.454" y="252.837" fill="none" stroke="#3BADD8" stroke-width="0.8539" stroke-miterlimit="10" width="81.93" height="146.351"/>
	<g>
		<g>
			<rect id="XMLID_1_" x="341" y="175" fill="#FFFFFF" width="123.188" height="219"/>
		</g>
		<g>
			<g>
				<defs>
					<rect id="SVGID_5_" x="341" y="175" width="123.188" height="219"/>
				</defs>
				<clipPath id="SVGID_6_">
					<use xlink:href="#SVGID_5_"  overflow="visible"/>
				</clipPath>
				<rect x="341" y="189.74" clip-path="url(#SVGID_6_)" fill="#253A7C" width="123.188" height="67.385"/>
			</g>
		</g>
		<g>
			<g>
				<defs>
					<rect id="SVGID_7_" x="341" y="175" width="123.188" height="219"/>
				</defs>
				<clipPath id="SVGID_8_">
					<use xlink:href="#SVGID_7_"  overflow="visible"/>
				</clipPath>
				<rect x="402.067" y="338.197" clip-path="url(#SVGID_8_)" fill="#253A7C" width="46.327" height="48.433"/>
			</g>
		</g>
		<g>
			<g>
				<defs>
					<rect id="SVGID_9_" x="341" y="175" width="123.188" height="219"/>
				</defs>
				<clipPath id="SVGID_10_">
					<use xlink:href="#SVGID_9_"  overflow="visible"/>
				</clipPath>
				<rect x="457.87" y="338.197" clip-path="url(#SVGID_10_)" fill="#253A7C" width="44.222" height="48.433"/>
			</g>
		</g>
		<g>
			<g>
				<defs>
					<rect id="SVGID_11_" x="341" y="175" width="123.188" height="219"/>
				</defs>
				<clipPath id="SVGID_12_">
					<use xlink:href="#SVGID_11_"  overflow="visible"/>
				</clipPath>
				<rect x="341" y="175" clip-path="url(#SVGID_12_)" fill="#FFC915" width="123.188" height="14.74"/>
			</g>
		</g>
		<g>
			<g>
				<defs>
					<rect id="SVGID_13_" x="341" y="175" width="123.188" height="219"/>
				</defs>
				<clipPath id="SVGID_14_">
					<use xlink:href="#SVGID_13_"  overflow="visible"/>
				</clipPath>
				<g clip-path="url(#SVGID_14_)">
					<circle fill="none" stroke="#FFC915" stroke-width="0.2166" stroke-miterlimit="10" cx="392.365" cy="252.575" r="2.908"/>
					<circle fill="none" stroke="#FFC915" stroke-width="0.2166" stroke-miterlimit="10" cx="402.17" cy="252.575" r="2.908"/>
					<circle fill="none" stroke="#FFC915" stroke-width="0.2166" stroke-miterlimit="10" cx="412.204" cy="252.574" r="2.908"/>
				</g>
			</g>
		</g>
		<g>
			<g>
				<defs>
					<rect id="SVGID_15_" x="341" y="175" width="123.188" height="219"/>
				</defs>
				<clipPath id="SVGID_16_">
					<use xlink:href="#SVGID_15_"  overflow="visible"/>
				</clipPath>
				<circle clip-path="url(#SVGID_16_)" fill="#FFC915" cx="392.311" cy="252.622" r="1.998"/>
			</g>
		</g>
		<g>
			<g>
				<defs>
					<rect id="SVGID_17_" x="341" y="175" width="123.188" height="219"/>
				</defs>
				<clipPath id="SVGID_18_">
					<use xlink:href="#SVGID_17_"  overflow="visible"/>
				</clipPath>
				<g clip-path="url(#SVGID_18_)">
					<text transform="matrix(0.8406 0 0 1 347.6172 333.8584)" fill="#253A7C" font-family="'Ubuntu'" font-size="5.7011">Aanbevolen</text>
				</g>
			</g>
		</g>
		<g>
			<g>
				<defs>
					<rect id="SVGID_19_" x="341" y="175" width="123.188" height="219"/>
				</defs>
				<clipPath id="SVGID_20_">
					<use xlink:href="#SVGID_19_"  overflow="visible"/>
				</clipPath>
				<g clip-path="url(#SVGID_20_)">
					<text transform="matrix(0.8406 0 0 1 359.0889 300.8857)" fill="#FFFFFF" font-family="'Ubuntu'" font-size="8.7796">Zoon</text>
				</g>
			</g>
		</g>
		<g>
			<g>
				<defs>
					<rect id="SVGID_21_" x="341" y="175" width="123.188" height="219"/>
				</defs>
				<clipPath id="SVGID_22_">
					<use xlink:href="#SVGID_21_"  overflow="visible"/>
				</clipPath>
				<g clip-path="url(#SVGID_22_)">
					<text transform="matrix(0.8406 0 0 1 363.3076 359.8096)" fill="#FFFFFF" font-family="'Ubuntu'" font-size="8.7796">De</text>
					<text transform="matrix(0.8406 0 0 1 359.0947 370.3457)" fill="#FFFFFF" font-family="'Ubuntu'" font-size="8.7796">Leew</text>
				</g>
			</g>
		</g>
		<g>
			<g>
				<defs>
					<rect id="SVGID_23_" x="341" y="175" width="123.188" height="219"/>
				</defs>
				<clipPath id="SVGID_24_">
					<use xlink:href="#SVGID_23_"  overflow="visible"/>
				</clipPath>
				<g clip-path="url(#SVGID_24_)">
					<text transform="matrix(0.8406 0 0 1 408.9355 295.6182)" fill="#FFFFFF" font-family="'Ubuntu'" font-size="8.7796">Het</text>
					<text transform="matrix(0.8406 0 0 1 402.9551 306.1543)" fill="#FFFFFF" font-family="'Ubuntu'" font-size="8.7796">Gebrek</text>
				</g>
			</g>
		</g>
		<g>
			<g>
				<defs>
					<rect id="SVGID_25_" x="341" y="175" width="123.188" height="219"/>
				</defs>
				<clipPath id="SVGID_26_">
					<use xlink:href="#SVGID_25_"  overflow="visible"/>
				</clipPath>
				<g clip-path="url(#SVGID_26_)">
					<g>
						<circle fill="#2D77BC" cx="443.878" cy="373.18" r="13.688"/>
					</g>
				</g>
			</g>
		</g>
		<g>
			<g>
				<defs>
					<rect id="SVGID_27_" x="341" y="175" width="123.188" height="219"/>
				</defs>
				<clipPath id="SVGID_28_">
					<use xlink:href="#SVGID_27_"  overflow="visible"/>
				</clipPath>
				<polygon clip-path="url(#SVGID_28_)" fill="#FFFFFF" points="451.352,368.73 451.352,368.73 435.788,368.73 435.788,368.73 
					435.788,368.73 435.788,368.73 				"/>
			</g>
		</g>
		<g>
			<g>
				<defs>
					<rect id="SVGID_29_" x="341" y="175" width="123.188" height="219"/>
				</defs>
				<clipPath id="SVGID_30_">
					<use xlink:href="#SVGID_29_"  overflow="visible"/>
				</clipPath>
				<polygon clip-path="url(#SVGID_30_)" fill="#FFFFFF" points="451.352,372.942 451.352,372.942 435.788,372.942 435.788,372.942 
					435.788,372.942 435.788,372.942 				"/>
			</g>
		</g>
		<g>
			<g>
				<defs>
					<rect id="SVGID_31_" x="341" y="175" width="123.188" height="219"/>
				</defs>
				<clipPath id="SVGID_32_">
					<use xlink:href="#SVGID_31_"  overflow="visible"/>
				</clipPath>
				<polygon clip-path="url(#SVGID_32_)" fill="#FFFFFF" points="451.352,377.154 451.352,377.154 435.788,377.154 435.788,377.154 
					435.788,377.154 435.788,377.154 				"/>
			</g>
		</g>
		<g>
			<g>
				<defs>
					<rect id="SVGID_33_" x="341" y="175" width="123.188" height="219"/>
				</defs>
				<clipPath id="SVGID_34_">
					<use xlink:href="#SVGID_33_"  overflow="visible"/>
				</clipPath>
				<circle clip-path="url(#SVGID_34_)" fill="#FFFFFF" cx="439.74" cy="368.807" r="1.995"/>
			</g>
		</g>
		<g>
			<g>
				<defs>
					<rect id="SVGID_35_" x="341" y="175" width="123.188" height="219"/>
				</defs>
				<clipPath id="SVGID_36_">
					<use xlink:href="#SVGID_35_"  overflow="visible"/>
				</clipPath>
				<circle clip-path="url(#SVGID_36_)" fill="#FFFFFF" cx="447.379" cy="373.254" r="1.996"/>
			</g>
		</g>
		<g>
			<g>
				<defs>
					<rect id="SVGID_37_" x="341" y="175" width="123.188" height="219"/>
				</defs>
				<clipPath id="SVGID_38_">
					<use xlink:href="#SVGID_37_"  overflow="visible"/>
				</clipPath>
				<circle clip-path="url(#SVGID_38_)" fill="#FFFFFF" cx="439.74" cy="377.928" r="1.995"/>
			</g>
		</g>
		<g>
			<g>
				<defs>
					<rect id="SVGID_39_" x="341" y="175" width="123.188" height="219"/>
				</defs>
				<clipPath id="SVGID_40_">
					<use xlink:href="#SVGID_39_"  overflow="visible"/>
				</clipPath>
				<path clip-path="url(#SVGID_40_)" fill="#253A7C" d="M354.193,179.463c-0.427-0.427-0.94-0.64-1.492-0.64h-4.433l-3.795,3.75
					l3.795,3.794h2.13l-3.027-3.027h4.052c0.169,0,0.337,0.043,0.467,0.171l2.173,2.217c0.425,0.423,0.938,0.637,1.492,0.637h4.475
					l3.751-3.794l-3.751-3.75h-2.174l3.027,3.025h-4.051c-0.169,0-0.297-0.085-0.426-0.17L354.193,179.463L354.193,179.463z
					 M352.701,180.315c0.172,0,0.298,0.085,0.425,0.214l2.173,2.173c0.426,0.427,0.895,0.64,1.533,0.64h4.051l-1.493,1.492h-3.792
					c-0.214,0-0.342-0.042-0.469-0.169l-2.172-2.173c-0.426-0.427-0.896-0.64-1.534-0.64h-4.052l1.491-1.534h3.839V180.315
					L352.701,180.315z"/>
			</g>
		</g>
		<g>
			<g>
				<defs>
					<rect id="SVGID_41_" x="341" y="175" width="123.188" height="219"/>
				</defs>
				<clipPath id="SVGID_42_">
					<use xlink:href="#SVGID_41_"  overflow="visible"/>
				</clipPath>
				<g clip-path="url(#SVGID_42_)">
					<g>
						<g>
							<g>
								<defs>
									<rect id="SVGID_43_" x="450.343" y="177.937" width="9.293" height="9.32"/>
								</defs>
								<clipPath id="SVGID_44_">
									<use xlink:href="#SVGID_43_"  overflow="visible"/>
								</clipPath>
								<path clip-path="url(#SVGID_44_)" fill="#253A7C" d="M459.551,186.756l-2.259-2.258c0.606-0.697,0.972-1.605,0.972-2.597
									c0-2.186-1.777-3.962-3.96-3.962c-2.186,0-3.963,1.778-3.963,3.962c0,2.184,1.777,3.96,3.963,3.96
									c0.991,0,1.9-0.368,2.599-0.973l2.255,2.258c0.057,0.053,0.127,0.083,0.198,0.083c0.069,0,0.144-0.028,0.197-0.083
									C459.656,187.042,459.656,186.863,459.551,186.756L459.551,186.756z M450.896,181.902c0-1.879,1.528-3.405,3.405-3.405
									s3.401,1.529,3.401,3.405c0,1.876-1.524,3.407-3.401,3.407S450.896,183.78,450.896,181.902L450.896,181.902z"/>
							</g>
						</g>
						<g>
							<g>
								<defs>
									<rect id="SVGID_45_" x="341" y="175" width="123.188" height="219"/>
								</defs>
								<clipPath id="SVGID_46_">
									<use xlink:href="#SVGID_45_"  overflow="visible"/>
								</clipPath>
								<g clip-path="url(#SVGID_46_)">
									<g>
										<g>
											<g>
												<defs>
													<rect id="SVGID_47_" x="439.89" y="178.305" width="7.274" height="8.581"/>
												</defs>
												<defs>
													<rect id="SVGID_48_" x="439.89" y="178.305" width="7.274" height="8.581"/>
												</defs>
												<defs>
													<rect id="SVGID_49_" x="439.89" y="178.305" width="7.274" height="8.581"/>
												</defs>
												<defs>
													<rect id="SVGID_50_" x="439.89" y="178.305" width="7.274" height="8.581"/>
												</defs>
												<defs>
													<rect id="SVGID_51_" x="439.89" y="178.305" width="7.274" height="8.581"/>
												</defs>
												<clipPath id="SVGID_52_">
													<use xlink:href="#SVGID_47_"  overflow="visible"/>
												</clipPath>
												<clipPath id="SVGID_53_" clip-path="url(#SVGID_52_)">
													<use xlink:href="#SVGID_48_"  overflow="visible"/>
												</clipPath>
												<clipPath id="SVGID_54_" clip-path="url(#SVGID_53_)">
													<use xlink:href="#SVGID_49_"  overflow="visible"/>
												</clipPath>
												<clipPath id="SVGID_55_" clip-path="url(#SVGID_54_)">
													<use xlink:href="#SVGID_50_"  overflow="visible"/>
												</clipPath>
												<clipPath id="SVGID_56_" clip-path="url(#SVGID_55_)">
													<use xlink:href="#SVGID_51_"  overflow="visible"/>
												</clipPath>
												<path clip-path="url(#SVGID_56_)" fill="#253A7C" d="M443.495,182.923h0.06c0.515-0.008,0.938-0.192,1.247-0.542
													c0.682-0.767,0.567-2.083,0.555-2.21c-0.044-0.943-0.489-1.396-0.857-1.606c-0.275-0.157-0.593-0.241-0.954-0.25h-0.026
													c-0.198,0-0.584,0.031-0.953,0.242c-0.371,0.211-0.823,0.661-0.868,1.612c-0.012,0.126-0.124,1.442,0.556,2.21
													C442.557,182.732,442.976,182.915,443.495,182.923L443.495,182.923z M442.166,180.217c0-0.005,0.001-0.011,0.001-0.014
													c0.058-1.269,0.96-1.405,1.347-1.405h0.021c0.478,0.012,1.291,0.205,1.344,1.405c0,0.006,0,0.011,0.003,0.014
													c0.001,0.012,0.125,1.216-0.438,1.85c-0.222,0.251-0.519,0.375-0.91,0.379h-0.018c-0.389-0.005-0.69-0.128-0.909-0.379
													C442.043,181.437,442.163,180.228,442.166,180.217L442.166,180.217z"/>
												<path clip-path="url(#SVGID_56_)" fill="#253A7C" d="M447.16,185.107v-0.006c0-0.013-0.001-0.027-0.001-0.044
													c-0.011-0.351-0.035-1.169-0.803-1.43c-0.006-0.002-0.015-0.004-0.02-0.006c-0.798-0.202-1.462-0.665-1.47-0.668
													c-0.108-0.077-0.257-0.049-0.333,0.058c-0.076,0.109-0.049,0.257,0.06,0.333c0.03,0.022,0.733,0.511,1.615,0.739
													c0.415,0.147,0.461,0.587,0.472,0.99c0,0.017,0,0.028,0.001,0.043c0.001,0.157-0.009,0.406-0.037,0.548
													c-0.285,0.163-1.411,0.725-3.12,0.725c-1.703,0-2.833-0.563-3.122-0.727c-0.029-0.142-0.039-0.387-0.037-0.548
													c0-0.015,0.002-0.026,0.002-0.043c0.011-0.403,0.06-0.846,0.47-0.99c0.882-0.226,1.587-0.721,1.617-0.739
													c0.108-0.076,0.134-0.224,0.058-0.331c-0.076-0.109-0.223-0.134-0.333-0.06c-0.007,0.006-0.667,0.466-1.468,0.668
													c-0.007,0.002-0.013,0.004-0.021,0.006c-0.767,0.263-0.789,1.082-0.801,1.431c0,0.017,0,0.03-0.001,0.043v0.006
													c-0.003,0.092-0.004,0.564,0.09,0.802c0.021,0.045,0.048,0.084,0.093,0.111c0.055,0.035,1.326,0.848,3.453,0.848
													c2.13,0,3.402-0.812,3.456-0.848c0.04-0.026,0.074-0.065,0.092-0.111C447.163,185.672,447.161,185.2,447.16,185.107
													L447.16,185.107z"/>
											</g>
										</g>
										<g>
											<g>
												<defs>
													<rect id="SVGID_57_" x="341" y="175" width="123.188" height="219"/>
												</defs>
												<clipPath id="SVGID_58_">
													<use xlink:href="#SVGID_57_"  overflow="visible"/>
												</clipPath>
												<rect x="421.02" y="262.39" clip-path="url(#SVGID_58_)" fill="#2D77BC" width="36.851" height="8.423"/>
											</g>
											<g>
												<g>
													<defs>
														<rect id="SVGID_59_" x="341" y="175" width="123.188" height="219"/>
													</defs>
													<clipPath id="SVGID_60_">
														<use xlink:href="#SVGID_59_"  overflow="visible"/>
													</clipPath>
													<g clip-path="url(#SVGID_60_)">
														<text transform="matrix(0.8406 0 0 1 414.2578 268.46)" fill="#FFFFFF" font-family="'Ubuntu'" font-size="5.7011">Verassing</text>
													</g>
												</g>
												<g>
													<g>
														<defs>
															<rect id="SVGID_61_" x="341" y="175" width="123.188" height="219"/>
														</defs>
														<clipPath id="SVGID_62_">
															<use xlink:href="#SVGID_61_"  overflow="visible"/>
														</clipPath>
														<rect x="348.37" y="275.024" clip-path="url(#SVGID_62_)" fill="#253A7C" width="45.274" height="48.433"/>
													</g>
													<g>
														<g>
															<defs>
																<rect id="SVGID_63_" x="341" y="175" width="123.188" height="219"/>
															</defs>
															<clipPath id="SVGID_64_">
																<use xlink:href="#SVGID_63_"  overflow="visible"/>
															</clipPath>
															<rect x="348.37" y="337.145" clip-path="url(#SVGID_64_)" fill="#253A7C" width="45.274" height="49.485"/>
														</g>
														<g id="Layer_1_1_">
															<g>
																<defs>
																	<rect id="SVGID_65_" x="341" y="175" width="123.188" height="219"/>
																</defs>
																<clipPath id="SVGID_66_">
																	<use xlink:href="#SVGID_65_"  overflow="visible"/>
																</clipPath>
																<rect x="402.067" y="275.024" clip-path="url(#SVGID_66_)" fill="#253A7C" width="46.327" height="48.433"/>
															</g>
															<g>
																<g>
																	<defs>
																		<rect id="SVGID_67_" x="341" y="175" width="123.188" height="219"/>
																	</defs>
																	<clipPath id="SVGID_68_">
																		<use xlink:href="#SVGID_67_"  overflow="visible"/>
																	</clipPath>
																	<rect x="455.765" y="275.024" clip-path="url(#SVGID_68_)" fill="#253A7C" width="45.273" height="48.433"/>
																</g>
															</g>
														</g>
													</g>
													<g>
														<defs>
															<rect id="SVGID_69_" x="341" y="175" width="123.188" height="219"/>
														</defs>
														<clipPath id="SVGID_70_">
															<use xlink:href="#SVGID_69_"  overflow="visible"/>
														</clipPath>
														<rect x="421.02" y="262.39" clip-path="url(#SVGID_70_)" fill="#375BB5" width="36.851" height="8.423"/>
													</g>
												</g>
											</g>
										</g>
									</g>
								</g>
							</g>
						</g>
					</g>
				</g>
			</g>
		</g>
	</g>
	<rect x="244" y="190" fill="#FFFFFF" width="118" height="210"/>
	<g>
		<g>
			<g>
				<g>
					<g>
						<defs>
							<rect id="SVGID_71_" x="291.416" y="327.119" width="4.028" height="4.068"/>
						</defs>
						<clipPath id="SVGID_72_">
							<use xlink:href="#SVGID_71_"  overflow="visible"/>
						</clipPath>
						<path clip-path="url(#SVGID_72_)" fill="#F4270C" d="M293.45,330.227l1.258,0.758l-0.333-1.43l1.11-0.961l-1.464-0.126
							l-0.571-1.349l-0.571,1.349l-1.463,0.126l1.109,0.961l-0.332,1.43L293.45,330.227z"/>
					</g>
				</g>
			</g>
		</g>
		<g>
			<g>
				<g>
					<g>
						<defs>
							<rect id="SVGID_73_" x="296.147" y="327.119" width="4.028" height="4.068"/>
						</defs>
						<clipPath id="SVGID_74_">
							<use xlink:href="#SVGID_73_"  overflow="visible"/>
						</clipPath>
						<path clip-path="url(#SVGID_74_)" fill="#F4270C" d="M298.182,330.227l1.259,0.758l-0.333-1.43l1.109-0.961l-1.463-0.126
							l-0.572-1.349l-0.57,1.349l-1.464,0.126l1.11,0.961l-0.334,1.43L298.182,330.227z"/>
					</g>
				</g>
			</g>
		</g>
		<g>
			<g>
				<g>
					<g>
						<defs>
							<rect id="SVGID_75_" x="300.879" y="327.119" width="4.029" height="4.068"/>
						</defs>
						<clipPath id="SVGID_76_">
							<use xlink:href="#SVGID_75_"  overflow="visible"/>
						</clipPath>
						<path clip-path="url(#SVGID_76_)" fill="#F4270C" d="M302.914,330.227l1.258,0.758l-0.333-1.43l1.11-0.961l-1.465-0.126
							l-0.57-1.349l-0.571,1.349l-1.464,0.126l1.109,0.961l-0.332,1.43L302.914,330.227z"/>
					</g>
				</g>
			</g>
		</g>
		<g>
			<g>
				<g>
					<g>
						<defs>
							<rect id="SVGID_77_" x="305.611" y="327.119" width="4.026" height="4.068"/>
						</defs>
						<clipPath id="SVGID_78_">
							<use xlink:href="#SVGID_77_"  overflow="visible"/>
						</clipPath>
						<path clip-path="url(#SVGID_78_)" fill="#F4270C" d="M307.646,330.227l1.258,0.758l-0.333-1.43l1.107-0.961l-1.463-0.126
							l-0.571-1.349l-0.569,1.349l-1.464,0.126l1.108,0.961l-0.333,1.43L307.646,330.227z"/>
					</g>
				</g>
			</g>
		</g>
		<g>
			<g>
				<g>
					<g>
						<defs>
							<rect id="SVGID_79_" x="310.343" y="327.119" width="4.028" height="4.068"/>
						</defs>
						<clipPath id="SVGID_80_">
							<use xlink:href="#SVGID_79_"  overflow="visible"/>
						</clipPath>
						<path clip-path="url(#SVGID_80_)" fill="#F4270C" d="M312.378,330.227l1.257,0.758l-0.332-1.43l1.109-0.961l-1.464-0.126
							l-0.57-1.349l-0.572,1.349l-1.463,0.126l1.109,0.961l-0.333,1.43L312.378,330.227z"/>
					</g>
				</g>
			</g>
		</g>
	</g>
	<rect x="244" y="190" fill="#FFC915" width="118" height="113"/>
	<path fill="#253A7C" d="M265.203,197.001c-0.408-0.408-0.898-0.612-1.429-0.612h-4.243l-3.632,3.59l3.632,3.632h2.04l-2.896-2.897
		h3.876c0.163,0,0.326,0.041,0.449,0.163l2.08,2.122c0.408,0.407,0.898,0.612,1.428,0.612h4.285l3.591-3.632l-3.591-3.59h-2.081
		l2.896,2.896h-3.876c-0.163,0-0.285-0.082-0.408-0.163L265.203,197.001L265.203,197.001z M263.774,197.817
		c0.163,0,0.286,0.082,0.408,0.204l2.081,2.081c0.408,0.408,0.856,0.612,1.469,0.612h3.876l-1.428,1.429h-3.632
		c-0.203,0-0.326-0.041-0.448-0.164l-2.081-2.081c-0.408-0.408-0.856-0.612-1.469-0.612h-3.876l1.428-1.469H263.774L263.774,197.817
		z"/>
	<g>
		<g>
			<rect id="XMLID_3_" x="276" y="215" fill="#253A7C" width="54" height="80"/>
		</g>
	</g>
	<rect x="249.057" y="335.533" fill="none" width="104.063" height="25.752"/>
	<text transform="matrix(1 0 0 1 254.8496 339.6846)" font-family="'Ubuntu'" font-size="5.349">Het was in de omstreken van een gure </text>
	<text transform="matrix(1 0 0 1 255.4565 346.1035)" font-family="'Ubuntu'" font-size="5.349">februaridag rond het middaguur. Mijn </text>
	<text transform="matrix(1 0 0 1 268.2705 352.5215)" font-family="'Ubuntu'" font-size="5.349">zoon lag in zijn inderwagen </text>
	<text transform="matrix(1 0 0 1 297.7988 358.9414)" font-family="'Ubuntu'" font-size="5.349">.....</text>
	<text transform="matrix(1 0 0 1 270.0947 318.7402)" font-family="'Ubuntu-Bold'" font-size="9.8246">VERGEZOCHT</text>
	<text transform="matrix(1 0 0 1 282.7949 324.3379)" font-family="'Ubuntu-Light'" font-size="3.2749">door Molovich -27 juni 2011</text>
	<rect x="276" y="375" fill="#2D77BC" width="54" height="14"/>
	<text transform="matrix(1 0 0 1 294.873 384.5176)" fill="#FFFFFF" font-family="'Ubuntu'" font-size="7.3139">LEES</text>
	<g>
		<g>
			<g>
				<g>
					<defs>
						<rect id="SVGID_81_" x="349.013" y="192.881" width="8.898" height="8.922"/>
					</defs>
					<clipPath id="SVGID_82_">
						<use xlink:href="#SVGID_81_"  overflow="visible"/>
					</clipPath>
					<path clip-path="url(#SVGID_82_)" fill="#253A7C" d="M357.828,201.325l-2.161-2.161c0.58-0.667,0.931-1.536,0.931-2.487
						c0-2.092-1.699-3.792-3.792-3.792s-3.793,1.702-3.793,3.792c0,2.091,1.702,3.793,3.793,3.793c0.95,0,1.82-0.351,2.486-0.931
						l2.162,2.161c0.051,0.052,0.12,0.079,0.188,0.079c0.066,0,0.138-0.025,0.188-0.079
						C357.931,201.598,357.931,201.428,357.828,201.325L357.828,201.325z M349.544,196.677c0-1.798,1.463-3.259,3.26-3.259
						c1.8,0,3.262,1.463,3.262,3.259c0,1.797-1.462,3.262-3.262,3.262C351.007,199.939,349.544,198.476,349.544,196.677
						L349.544,196.677z"/>
				</g>
			</g>
		</g>
	</g>
	<g>
		<g>
			<g>
				<g>
					<defs>
						<rect id="SVGID_83_" x="339.007" y="193.234" width="6.964" height="8.215"/>
					</defs>
					<clipPath id="SVGID_84_">
						<use xlink:href="#SVGID_83_"  overflow="visible"/>
					</clipPath>
					<path clip-path="url(#SVGID_84_)" fill="#253A7C" d="M342.457,197.655h0.055c0.496-0.008,0.897-0.183,1.194-0.517
						c0.652-0.735,0.544-1.996,0.532-2.116c-0.043-0.903-0.472-1.335-0.822-1.537c-0.262-0.151-0.569-0.232-0.912-0.239h-0.028
						c-0.188,0-0.558,0.031-0.909,0.232c-0.356,0.202-0.79,0.634-0.832,1.543c-0.014,0.12-0.12,1.381,0.529,2.116
						C341.56,197.472,341.961,197.647,342.457,197.655L342.457,197.655z M341.185,195.064c0-0.005,0.003-0.01,0.003-0.014
						c0.057-1.215,0.919-1.345,1.286-1.345h0.021c0.458,0.01,1.235,0.196,1.288,1.345c0,0.005,0,0.01,0.002,0.014
						c0.001,0.012,0.12,1.164-0.419,1.771c-0.214,0.24-0.498,0.359-0.873,0.362h-0.019c-0.372-0.003-0.657-0.122-0.869-0.362
						C341.067,196.232,341.183,195.075,341.185,195.064L341.185,195.064z"/>
				</g>
			</g>
			<g>
				<g>
					<defs>
						<rect id="SVGID_85_" x="339.007" y="193.234" width="6.964" height="8.215"/>
					</defs>
					<clipPath id="SVGID_86_">
						<use xlink:href="#SVGID_85_"  overflow="visible"/>
					</clipPath>
					<path clip-path="url(#SVGID_86_)" fill="#253A7C" d="M345.967,199.746v-0.005c0-0.014-0.002-0.027-0.002-0.042
						c-0.011-0.335-0.032-1.12-0.768-1.371c-0.005-0.002-0.014-0.003-0.02-0.005c-0.764-0.195-1.397-0.635-1.404-0.64
						c-0.104-0.073-0.246-0.048-0.318,0.056c-0.072,0.104-0.048,0.246,0.056,0.319c0.028,0.02,0.704,0.489,1.548,0.706
						c0.396,0.141,0.438,0.563,0.45,0.949c0,0.015,0,0.029,0.002,0.042c0.001,0.152-0.009,0.388-0.036,0.523
						c-0.272,0.156-1.35,0.695-2.984,0.695c-1.631,0-2.714-0.541-2.989-0.697c-0.027-0.135-0.04-0.371-0.036-0.523
						c0-0.014,0.002-0.027,0.002-0.042c0.012-0.386,0.058-0.808,0.45-0.949c0.844-0.217,1.519-0.688,1.548-0.707
						c0.104-0.073,0.128-0.215,0.057-0.318c-0.072-0.104-0.217-0.129-0.317-0.056c-0.007,0.005-0.64,0.446-1.407,0.641
						c-0.007,0.001-0.012,0.003-0.017,0.005c-0.735,0.253-0.757,1.037-0.77,1.371c0,0.016,0,0.029-0.002,0.042v0.005
						c-0.001,0.088-0.003,0.541,0.087,0.769c0.019,0.043,0.047,0.08,0.088,0.105c0.053,0.033,1.271,0.811,3.31,0.811
						s3.257-0.779,3.308-0.811c0.039-0.025,0.071-0.063,0.088-0.105C345.97,200.287,345.968,199.834,345.967,199.746
						L345.967,199.746z"/>
				</g>
			</g>
		</g>
	</g>
</g>
<path fill="#253A7C" d="M439.811,164.116c-0.427-0.426-0.94-0.639-1.492-0.639h-4.433l-3.795,3.749l3.795,3.794h2.13l-3.027-3.026
	h4.052c0.169,0,0.337,0.043,0.467,0.171l2.173,2.217c0.425,0.424,0.938,0.637,1.492,0.637h4.475l3.751-3.794l-3.751-3.749h-2.174
	l3.027,3.024h-4.051c-0.169,0-0.297-0.085-0.426-0.171L439.811,164.116L439.811,164.116z M438.318,164.968
	c0.172,0,0.298,0.086,0.425,0.215l2.173,2.172c0.426,0.428,0.895,0.641,1.533,0.641h4.051l-1.493,1.492h-3.792
	c-0.214,0-0.342-0.043-0.469-0.169l-2.172-2.173c-0.426-0.428-0.896-0.641-1.534-0.641h-4.052l1.491-1.533h3.839V164.968
	L438.318,164.968z"/>
</svg>
