<?xml version="1.0" encoding="utf-8"?>
<!-- Generator: Adobe Illustrator 16.0.0, SVG Export Plug-In . SVG Version: 6.00 Build 0)  -->
<!DOCTYPE svg PUBLIC "-//W3C//DTD SVG 1.1//EN" "http://www.w3.org/Graphics/SVG/1.1/DTD/svg11.dtd">
<svg version="1.1" xmlns="http://www.w3.org/2000/svg" xmlns:xlink="http://www.w3.org/1999/xlink" x="0px" y="0px" width="600px"
	 height="400px" viewBox="0 0 600 400" enable-background="new 0 0 600 400" xml:space="preserve">
<g id="Layer_2">
	<rect y="253" fill="#FFFFFF" width="243" height="148"/>
</g>
<g id="Layer_1">
	<rect x="428" y="182" fill="#0044B7" width="180" height="95"/>
	<rect x="434" y="308" fill="#0044B7" width="168" height="92"/>
	<rect x="428" y="158" fill="#FFC915" width="180" height="24"/>
	<rect x="428" y="277" fill="#FFC915" width="180" height="20"/>
	<text transform="matrix(1 0 0 1 460.8906 221.7422)" fill="#FFFFFF" font-family="'Ubuntu'" font-size="16.919">ONVERWACHT</text>
	<g>
		<circle fill="none" stroke="#FFC915" stroke-width="0.3285" stroke-miterlimit="10" cx="504.18" cy="269.483" r="4.188"/>
		<circle fill="none" stroke="#FFC915" stroke-width="0.3285" stroke-miterlimit="10" cx="518.309" cy="269.483" r="4.19"/>
		<circle fill="none" stroke="#FFC915" stroke-width="0.3285" stroke-miterlimit="10" cx="532.764" cy="269.483" r="4.188"/>
	</g>
	<circle fill="#FFC915" cx="504.103" cy="269.553" r="2.879"/>
	<g>
		<g>
			<defs>
				<rect id="SVGID_1_" x="583.705" y="86.958" width="13.392" height="13.425"/>
			</defs>
			<clipPath id="SVGID_2_">
				<use xlink:href="#SVGID_1_"  overflow="visible"/>
			</clipPath>
			<path clip-path="url(#SVGID_2_)" fill="#253A7C" d="M596.971,99.666l-3.25-3.252c0.871-1.003,1.397-2.312,1.397-3.743
				c0-3.148-2.56-5.707-5.706-5.707s-5.707,2.563-5.707,5.707c0,3.146,2.563,5.706,5.707,5.706c1.433,0,2.741-0.528,3.742-1.399
				l3.256,3.251c0.073,0.078,0.179,0.12,0.279,0.12c0.099,0,0.205-0.039,0.281-0.12C597.124,100.076,597.124,99.82,596.971,99.666
				L596.971,99.666z M584.504,92.671c0-2.707,2.204-4.905,4.905-4.905c2.708,0,4.908,2.202,4.908,4.905c0,2.704-2.2,4.91-4.908,4.91
				C586.708,97.581,584.504,95.377,584.504,92.671L584.504,92.671z M584.504,92.671"/>
		</g>
	</g>
	<g>
		<g>
			<defs>
				<rect id="SVGID_3_" x="572.649" y="162.492" width="10.479" height="12.36"/>
			</defs>
			<clipPath id="SVGID_4_">
				<use xlink:href="#SVGID_3_"  overflow="visible"/>
			</clipPath>
			<path clip-path="url(#SVGID_4_)" fill="#253A7C" d="M577.841,169.144h0.082c0.748-0.014,1.352-0.276,1.799-0.778
				c0.98-1.107,0.819-3.004,0.798-3.185c-0.06-1.359-0.704-2.01-1.234-2.313c-0.396-0.227-0.856-0.351-1.372-0.36h-0.046
				c-0.281,0-0.837,0.046-1.369,0.349c-0.535,0.304-1.188,0.953-1.251,2.323c-0.02,0.181-0.183,2.078,0.8,3.185
				C576.49,168.868,577.094,169.13,577.841,169.144L577.841,169.144z M575.927,165.245c0-0.009,0.002-0.016,0.002-0.021
				c0.086-1.828,1.382-2.023,1.938-2.023h0.032c0.687,0.015,1.857,0.295,1.936,2.023c0,0.007,0,0.015,0.003,0.021
				c0.002,0.017,0.18,1.75-0.63,2.663c-0.321,0.364-0.749,0.542-1.313,0.547h-0.028c-0.56-0.006-0.99-0.184-1.309-0.547
				C575.75,167.001,575.923,165.26,575.927,165.245L575.927,165.245z M575.927,165.245"/>
			<path clip-path="url(#SVGID_4_)" fill="#253A7C" d="M583.123,172.29v-0.008c0-0.021-0.004-0.041-0.004-0.063
				c-0.016-0.505-0.049-1.686-1.154-2.063c-0.009-0.003-0.019-0.004-0.027-0.008c-1.148-0.293-2.104-0.956-2.113-0.963
				c-0.159-0.109-0.371-0.072-0.48,0.085c-0.109,0.153-0.071,0.369,0.084,0.478c0.044,0.031,1.057,0.736,2.326,1.063
				c0.594,0.212,0.661,0.848,0.68,1.428c0,0.022,0,0.043,0.004,0.065c0.001,0.229-0.014,0.583-0.057,0.787
				c-0.411,0.235-2.03,1.045-4.492,1.045c-2.453,0-4.084-0.813-4.497-1.048c-0.043-0.203-0.063-0.559-0.058-0.789
				c0-0.02,0.004-0.041,0.004-0.063c0.02-0.581,0.086-1.217,0.681-1.427c1.268-0.326,2.281-1.035,2.327-1.063
				c0.155-0.11,0.193-0.324,0.083-0.48c-0.107-0.154-0.324-0.193-0.48-0.083c-0.008,0.008-0.961,0.67-2.114,0.964
				c-0.01,0.001-0.019,0.005-0.023,0.007c-1.109,0.38-1.142,1.561-1.158,2.064c0,0.021,0,0.041-0.003,0.062v0.008
				c-0.002,0.132-0.006,0.813,0.13,1.154c0.026,0.068,0.072,0.123,0.134,0.162c0.076,0.05,1.909,1.218,4.978,1.218
				c3.065,0,4.899-1.17,4.977-1.218c0.059-0.039,0.107-0.094,0.134-0.162C583.128,173.104,583.126,172.422,583.123,172.29
				L583.123,172.29z M583.123,172.29"/>
		</g>
	</g>
	<g>
		<text transform="matrix(1 0 0 1 472.7852 289.6084)" fill="#253A7C" font-family="'NSSans'" font-size="7.556">Aanbevolen</text>
	</g>
	<g>
		<text transform="matrix(1 0 0 1 525.8984 289.6084)" fill="#253A7C" font-family="'NSSans'" font-size="7.556">Populair</text>
	</g>
	<g>
		<text transform="matrix(1 0 0 1 567.6045 289.6084)" fill="#253A7C" font-family="'NSSans'" font-size="7.556">Download</text>
	</g>
	
		<rect x="0.02" y="252.685" fill="none" stroke="#3AAED9" stroke-width="0.8495" stroke-miterlimit="10" width="80.715" height="146.278"/>
	<path id="XMLID_214_" fill="#343433" d="M59.28,348.557l-5.008-3.861l-2.073-12.398c-0.002-0.016-0.008-0.027-0.011-0.043
		c-0.005-0.018-0.01-0.037-0.017-0.055c-0.012-0.045-0.029-0.086-0.05-0.123c-0.006-0.012-0.006-0.021-0.011-0.031
		c-0.004-0.002-0.006-0.004-0.009-0.008c-0.029-0.051-0.065-0.096-0.107-0.139c-0.007-0.008-0.015-0.012-0.021-0.021
		c-0.036-0.031-0.075-0.064-0.117-0.09c-0.013-0.006-0.025-0.012-0.038-0.02c-0.045-0.025-0.093-0.045-0.143-0.059
		c-0.007-0.004-0.012-0.006-0.02-0.008c-0.057-0.016-0.118-0.023-0.179-0.023c-0.004,0-0.007,0-0.009,0h-6.739
		c1.705-1.313,2.808-3.371,2.808-5.684c0-3.951-3.213-7.164-7.164-7.164s-7.164,3.213-7.164,7.164c0,2.313,1.103,4.371,2.808,5.684
		h-6.739c-0.005,0-0.009,0-0.015,0c-0.008,0-0.017,0-0.026,0c-0.053,0.002-0.103,0.012-0.15,0.023c-0.004,0-0.007,0.004-0.01,0.004
		c-0.054,0.016-0.104,0.037-0.151,0.063c-0.015,0.008-0.027,0.018-0.042,0.027c-0.037,0.023-0.072,0.047-0.104,0.076
		c-0.012,0.014-0.024,0.023-0.035,0.035c-0.04,0.041-0.077,0.086-0.105,0.137c-0.001,0-0.002,0-0.003,0.002
		c-0.003,0.008-0.005,0.012-0.008,0.02c-0.023,0.043-0.043,0.092-0.058,0.141c-0.006,0.016-0.009,0.033-0.013,0.053
		c-0.01,0.039-0.015,0.08-0.017,0.125c-0.001,0.018-0.003,0.033-0.003,0.053c0,0.008-0.002,0.016-0.002,0.023l0.672,12.201
		l-7.614,3.822c-0.365,0.182-0.514,0.629-0.331,0.996c0.132,0.256,0.392,0.406,0.664,0.406c0.111,0,0.226-0.025,0.333-0.078
		l8.047-4.039c0.264-0.133,0.425-0.41,0.407-0.705l-0.526-9.586l5.69,9.857l-11.854,5.633c-0.262,0.123-0.428,0.395-0.421,0.684
		c0.006,0.293,0.183,0.553,0.449,0.668l16.031,6.801c0.096,0.043,0.193,0.059,0.29,0.059c0.287,0,0.563-0.168,0.682-0.451
		c0.161-0.377-0.015-0.811-0.393-0.971l-14.512-6.158l10.471-4.979l3.11,5.387c0.132,0.229,0.377,0.369,0.642,0.369
		c0.266,0,0.509-0.141,0.642-0.369l3.229-5.594l10.239,4.867l-14.227,2.258c-0.405,0.063-0.681,0.445-0.616,0.848
		c0.059,0.365,0.373,0.625,0.732,0.625c0.037,0,0.076-0.002,0.116-0.01l16.588-2.635c0.32-0.049,0.57-0.303,0.616-0.623
		c0.047-0.322-0.121-0.635-0.414-0.775l-12.292-5.842l6.092-10.551l1.78,10.652c0.031,0.184,0.129,0.35,0.278,0.465l5.236,4.039
		c0.135,0.104,0.295,0.154,0.452,0.154c0.222,0,0.441-0.1,0.586-0.289C59.663,349.273,59.604,348.805,59.28,348.557z
		 M34.691,325.994c0-3.133,2.549-5.684,5.682-5.684s5.683,2.551,5.683,5.684c0,3.135-2.55,5.684-5.683,5.684
		S34.691,329.129,34.691,325.994z M40.373,350.152l-9.813-16.996h19.624L40.373,350.152z"/>
	<rect id="XMLID_295_" y="253.146" fill="#50C0E8" width="80.771" height="13.68"/>
	<path id="XMLID_293_" fill="#FFFFFF" d="M7.936,260.007l2.246-1.889c0.113-0.135,0.098-0.333-0.036-0.446
		c-0.132-0.113-0.331-0.097-0.445,0.036l-2.688,2.408c-0.004,0.005-0.007,0.01-0.01,0.017c-0.006,0.007-0.011,0.014-0.015,0.021
		c-0.007,0.011-0.012,0.021-0.017,0.03c-0.004,0.008-0.008,0.014-0.01,0.023c-0.005,0.01-0.009,0.021-0.012,0.035
		c-0.002,0.005-0.004,0.014-0.006,0.02c-0.004,0.019-0.006,0.039-0.006,0.057c0,0.002,0,0.002,0,0.004s0,0.003,0,0.003
		c0.001,0.019,0.002,0.036,0.006,0.055c0.002,0.009,0.005,0.017,0.007,0.023c0.003,0.011,0.006,0.021,0.01,0.031
		c0.004,0.011,0.008,0.019,0.012,0.026c0.004,0.009,0.009,0.019,0.015,0.025c0.005,0.01,0.011,0.018,0.018,0.025
		c0.003,0.006,0.005,0.01,0.008,0.014l2.688,2.281c0.063,0.075,0.151,0.112,0.242,0.112c0.072,0,0.144-0.025,0.203-0.074
		c0.134-0.113,0.149-0.312,0.036-0.446l-2.245-1.762l-0.285-0.357L7.936,260.007z"/>
	<text id="XMLID_292_" transform="matrix(1 0 0 1 25.7178 262.748)" fill="#FFFFFF" font-family="'OpenSans'" font-size="6.0591">instructies</text>
	<rect id="XMLID_291_" x="0.008" y="287.553" fill="#50C0E8" width="56.198" height="14.945"/>
	<rect id="XMLID_290_" x="56.206" y="287.553" fill="#3AAED9" width="24.778" height="14.945"/>
	<text id="XMLID_289_" transform="matrix(1 0 0 1 16.1602 294.5215)"><tspan x="0" y="0" fill="#FFFFFF" font-family="'Ubuntu-Light'" font-size="3.5345">Volg de </tspan><tspan x="12.798" y="0" fill="#FFFFFF" font-family="'Ubuntu-LightItalic'" font-size="3.5345">poses </tspan><tspan x="21.864" y="0" fill="#FFFFFF" font-family="'Ubuntu-Light'" font-size="3.5345">die </tspan><tspan x="-6.205" y="4.242" fill="#FFFFFF" font-family="'Ubuntu-Light'" font-size="3.5345">op het scherm te zien zijn</tspan></text>
	<g id="XMLID_283_">
		<path id="XMLID_286_" fill="#FFFFFF" d="M69.71,291.645c-0.074-0.049-0.167-0.049-0.241,0l-2.659,1.684h-1.703
			c-0.404,0-0.734,0.361-0.734,0.807v1.781c0,0.445,0.33,0.807,0.734,0.807h1.703l2.659,1.684c0.037,0.025,0.078,0.037,0.119,0.037
			c0.043,0,0.085-0.012,0.122-0.037c0.075-0.045,0.121-0.135,0.121-0.23v-6.303C69.831,291.779,69.785,291.691,69.71,291.645z
			 M69.348,297.719l-2.353-1.49c-0.037-0.023-0.078-0.037-0.122-0.037h-1.767c-0.138,0-0.251-0.123-0.251-0.275v-1.781
			c0-0.152,0.113-0.275,0.251-0.275h1.767c0.044,0,0.085-0.014,0.122-0.035l2.353-1.49V297.719z"/>
		<path id="XMLID_285_" fill="#FFFFFF" d="M72.043,292.199c-0.12-0.08-0.285-0.053-0.368,0.07c-0.082,0.119-0.051,0.285,0.072,0.367
			c0.79,0.539,1.264,1.434,1.264,2.387c0,0.957-0.474,1.852-1.264,2.391c-0.123,0.082-0.154,0.246-0.072,0.367
			c0.052,0.076,0.137,0.117,0.221,0.117c0.05,0,0.103-0.016,0.147-0.047c0.939-0.637,1.498-1.693,1.498-2.828
			C73.541,293.895,72.982,292.838,72.043,292.199z"/>
		<path id="XMLID_284_" fill="#FFFFFF" d="M70.578,293.363c-0.142-0.037-0.288,0.047-0.325,0.186
			c-0.038,0.143,0.045,0.289,0.186,0.326c0.517,0.143,0.878,0.615,0.878,1.148c0,0.537-0.361,1.012-0.878,1.152
			c-0.141,0.037-0.224,0.182-0.186,0.324c0.032,0.119,0.14,0.197,0.256,0.197c0.021,0,0.046-0.004,0.069-0.012
			c0.745-0.203,1.268-0.885,1.268-1.662C71.846,294.252,71.323,293.568,70.578,293.363z"/>
	</g>
	<text id="XMLID_256_" transform="matrix(1 0 0 1 7.9141 276.3574)"><tspan x="0" y="0" fill="#343433" font-family="'Ubuntu'" font-size="4.5443">We adviseren je deze </tspan><tspan x="0" y="5.453" fill="#343433" font-family="'Ubuntu-Italic'" font-size="4.5443">yoga oefening</tspan><tspan x="28.256" y="5.453" fill="#343433" font-family="'Ubuntu'" font-size="4.5443"> te doen:</tspan></text>
	<path id="XMLID_253_" fill="#E8573F" d="M69.9,390.92H13.194c-2.301,0-4.166-1.863-4.166-4.166v-3.957
		c0-2.301,1.865-4.166,4.166-4.166H69.9c2.299,0,4.165,1.865,4.165,4.166v3.957C74.065,389.057,72.199,390.92,69.9,390.92z"/>
	
		<text id="XMLID_17_" transform="matrix(1 0 0 1 24.1377 386.6563)" fill="#FFFFFF" font-family="'Bariol-Regular'" font-size="6.0591">start oefening</text>
	
		<rect x="81.119" y="252.848" fill="none" stroke="#3AAED9" stroke-width="0.8498" stroke-miterlimit="10" width="80.748" height="146.342"/>
	<path id="XMLID_118_" fill="#50C0E8" d="M150.146,389.258c0.026-0.086,0.057-0.17,0.076-0.256c0.09-0.373,0.177-0.746,0.266-1.137
		c0.146,0.031,0.287,0.061,0.427,0.092c0.123,0.029,0.246,0.057,0.367,0.086c0.055,0.014,0.085,0,0.117-0.051
		c0.16-0.232,0.32-0.463,0.49-0.689c0.047-0.061,0.063-0.098,0.016-0.166c-0.141-0.217-0.273-0.438-0.415-0.668
		c0.426-0.264,0.845-0.523,1.274-0.789c0.085,0.135,0.166,0.262,0.247,0.393c0.06,0.098,0.123,0.193,0.179,0.293
		c0.029,0.051,0.057,0.07,0.116,0.049c0.281-0.094,0.571-0.131,0.865-0.141c0.064-0.002,0.089-0.029,0.103-0.092
		c0.05-0.234,0.108-0.469,0.163-0.701c0.006-0.023,0.015-0.045,0.024-0.078c0.481,0.113,0.959,0.225,1.451,0.342
		c-0.016,0.078-0.03,0.15-0.047,0.223c-0.045,0.191-0.091,0.379-0.132,0.57c-0.006,0.029,0.004,0.084,0.024,0.096
		c0.289,0.156,0.554,0.348,0.792,0.578c0.252-0.156,0.497-0.307,0.756-0.467c0.063,0.102,0.129,0.199,0.19,0.297
		c0.187,0.299,0.369,0.6,0.558,0.896c0.04,0.061,0.034,0.09-0.03,0.129c-0.207,0.123-0.41,0.254-0.615,0.377
		c-0.05,0.031-0.058,0.061-0.046,0.121c0.052,0.277,0.101,0.561,0.14,0.842c0.011,0.074,0.026,0.107,0.104,0.123
		c0.219,0.045,0.436,0.098,0.653,0.15c0.035,0.008,0.071,0.02,0.117,0.033c-0.114,0.486-0.227,0.963-0.339,1.451
		c-0.065-0.012-0.122-0.021-0.178-0.035c-0.204-0.047-0.407-0.094-0.61-0.145c-0.056-0.014-0.087-0.008-0.117,0.045
		c-0.141,0.266-0.311,0.512-0.521,0.729c-0.02,0.021-0.017,0.088,0.001,0.117c0.136,0.227,0.277,0.449,0.425,0.688
		c-0.424,0.262-0.846,0.523-1.275,0.791c-0.111-0.18-0.221-0.346-0.323-0.52c-0.135-0.229-0.131-0.223-0.396-0.17
		c-0.221,0.043-0.447,0.066-0.672,0.09c-0.069,0.01-0.104,0.025-0.12,0.098c-0.057,0.254-0.119,0.508-0.184,0.777
		c-0.486-0.115-0.966-0.227-1.459-0.342c0.053-0.227,0.108-0.441,0.152-0.658c0.057-0.266,0.082-0.172-0.137-0.316
		c-0.191-0.125-0.374-0.268-0.552-0.41c-0.072-0.059-0.121-0.078-0.206-0.021c-0.189,0.129-0.39,0.242-0.582,0.367
		c-0.058,0.037-0.081,0.021-0.113-0.031c-0.245-0.396-0.491-0.793-0.745-1.201c0.162-0.104,0.323-0.205,0.484-0.307
		c0.088-0.055,0.215-0.094,0.249-0.176c0.032-0.072-0.042-0.189-0.056-0.287c-0.03-0.207-0.059-0.414-0.076-0.621
		c-0.006-0.074-0.028-0.104-0.098-0.121c-0.262-0.057-0.522-0.123-0.783-0.184C150.146,389.299,150.146,389.277,150.146,389.258z
		 M156.007,389.525c-0.002-0.98-0.773-1.754-1.753-1.758c-0.941-0.004-1.741,0.797-1.739,1.742c0.003,0.973,0.79,1.758,1.761,1.752
		C155.22,391.258,156.008,390.465,156.007,389.525z"/>
	
		<line id="XMLID_117_" fill="none" stroke="#E8573F" stroke-width="1.6996" stroke-miterlimit="10" x1="121.493" y1="387.652" x2="121.493" y2="262.943"/>
	
		<circle id="XMLID_116_" fill="#F26F54" stroke="#E8573F" stroke-width="1.6996" stroke-miterlimit="10" cx="121.838" cy="379.42" r="8.231"/>
	
		<circle id="XMLID_115_" fill="#FFFFFF" stroke="#E8573F" stroke-width="1.6996" stroke-miterlimit="10" cx="121.838" cy="351.023" r="8.231"/>
	
		<circle id="XMLID_114_" fill="#FFFFFF" stroke="#E8573F" stroke-width="1.6996" stroke-miterlimit="10" cx="121.838" cy="322.625" r="8.231"/>
	
		<circle id="XMLID_113_" fill="#FFFFFF" stroke="#E8573F" stroke-width="1.6996" stroke-miterlimit="10" cx="121.838" cy="294.229" r="8.231"/>
	
		<circle id="XMLID_112_" fill="#FFFFFF" stroke="#3AAED9" stroke-width="1.6996" stroke-miterlimit="10" cx="121.838" cy="265.832" r="8.231"/>
	<rect id="XMLID_21_" x="115.126" y="261.536" fill="none" width="13.197" height="11.048"/>
	<text transform="matrix(1 0 0 1 119.9932 265.9785)" fill="#000100" font-family="'Bariol-Regular'" font-size="6.2398">5</text>
	<text transform="matrix(0.7 0 0 0.7 117.6953 270.5605)" fill="#000100" font-family="'Bariol-Regular'" font-size="6.2398">mrt</text>
	<rect id="XMLID_107_" x="80.984" y="252.259" fill="#50C0E8" width="81.47" height="10.685"/>
	<rect id="XMLID_101_" x="80.984" y="252.259" fill="#3AAED9" width="25.813" height="10.685"/>
	<rect id="XMLID_14_" x="87.221" y="255.701" fill="none" width="71.154" height="5.835"/>
	<text id="XMLID_51_" transform="matrix(1 0 0 1 87.2207 258.9766)"><tspan x="0" y="0" fill="#FFFFFF" font-family="'Bariol-Regular'" font-size="4.6015">tijdlijn</tspan><tspan x="10.464" y="0" fill="#FFFFFF" font-family="'Bariol-Light'" font-size="4.6015">	</tspan><tspan x="10.863" y="0" fill="#FFFFFF" font-family="'Bariol-Light'" font-size="4.6015" letter-spacing="1">						</tspan><tspan x="27.157" y="0" fill="#FFFFFF" font-family="'Bariol-Light'" font-size="4.6015">progressie</tspan><tspan x="45.448" y="0" fill="#FFFFFF" font-family="'Bariol-Light'" font-size="4.6015">	</tspan><tspan x="46.167" y="0" fill="#FFFFFF" font-family="'Bariol-Light'" font-size="4.6015" letter-spacing="1">				</tspan><tspan x="57.029" y="0" fill="#FFFFFF" font-family="'Bariol-Light'" font-size="4.6015"> aanval</tspan></text>
	<rect id="XMLID_11_" x="115.126" y="374.449" fill="none" width="13.197" height="11.047"/>
	<text transform="matrix(1 0 0 1 120.6299 378.8906)" fill="#FFFFFF" font-family="'Bariol-Regular'" font-size="6.2398">1</text>
	<text transform="matrix(0.7 0 0 0.7 117.6953 383.4727)" fill="#FFFFFF" font-family="'Bariol-Regular'" font-size="6.2398">mrt</text>
	<rect id="XMLID_8_" x="115.126" y="346.428" fill="none" width="13.197" height="11.047"/>
	<text transform="matrix(1 0 0 1 120.0645 350.8691)" fill="#000100" font-family="'Bariol-Regular'" font-size="6.2398">2</text>
	<text transform="matrix(0.7 0 0 0.7 117.6953 355.4531)" fill="#000100" font-family="'Bariol-Regular'" font-size="6.2398">mrt</text>
	<rect id="XMLID_5_" x="115.126" y="317.484" fill="none" width="13.197" height="11.049"/>
	<text transform="matrix(1 0 0 1 120.0332 321.9258)" fill="#000100" font-family="'Bariol-Regular'" font-size="6.2398">3</text>
	<text transform="matrix(0.7 0 0 0.7 117.6953 326.5098)" fill="#000100" font-family="'Bariol-Regular'" font-size="6.2398">mrt</text>
	<rect id="XMLID_2_" x="115.126" y="289.219" fill="none" width="13.197" height="11.047"/>
	<text transform="matrix(1 0 0 1 120.04 293.6621)" fill="#000100" font-family="'Bariol-Regular'" font-size="6.2398">4</text>
	<text transform="matrix(0.7 0 0 0.7 117.6953 298.2441)" fill="#000100" font-family="'Bariol-Regular'" font-size="6.2398">mrt</text>
	<rect id="XMLID_331_" x="162.688" y="252.336" fill="#50C0E8" width="82.414" height="13.962"/>
	<path id="XMLID_528_" fill="#50C0E8" d="M234.331,357.856h-60.854c-1.521,0-2.754-1.232-2.754-2.751v-57.413
		c0-1.519,1.233-2.752,2.754-2.752h60.854c1.521,0,2.753,1.233,2.753,2.752v57.413C237.083,356.624,235.852,357.856,234.331,357.856
		z"/>
	<text id="XMLID_527_" transform="matrix(1 0 0 1 170.4351 285.501)"><tspan x="0" y="0" fill="#343433" font-family="'Ubuntu'" font-size="4.6368">Waar heb je last van </tspan><tspan x="43.057" y="0" fill="#343433" font-family="'Ubuntu-Italic'" font-size="4.6368">Peter</tspan><tspan x="54.125" y="0" fill="#343433" font-family="'Ubuntu'" font-size="4.6368">?</tspan></text>
	<g id="XMLID_522_">
		
			<text id="XMLID_526_" transform="matrix(1 0 0 1 195.7881 304.6826)" fill="#FFFFFF" font-family="'OpenSans'" font-size="6.1824">Angst</text>
		
			<text id="XMLID_525_" transform="matrix(1 0 0 1 194.2847 336.9033)" fill="#FFFFFF" font-family="'OpenSans'" font-size="6.1824">Paniek</text>
		
			<text id="XMLID_524_" transform="matrix(1 0 0 1 186.5581 352.1006)" fill="#FFFFFF" font-family="'OpenSans'" font-size="6.1824">Herbeleving</text>
		
			<text id="XMLID_523_" transform="matrix(1 0 0 1 192.3013 321.1152)" fill="#FFFFFF" font-family="'OpenSans'" font-size="6.1824">Verdriet</text>
	</g>
	<g id="XMLID_491_">
		
			<line id="XMLID_521_" fill="none" stroke="#FFFFFF" stroke-width="1.7025" stroke-miterlimit="10" x1="170.77" y1="326.666" x2="237.083" y2="326.666"/>
		
			<line id="XMLID_493_" fill="none" stroke="#FFFFFF" stroke-width="1.7025" stroke-miterlimit="10" x1="170.77" y1="342.53" x2="237.083" y2="342.53"/>
		
			<line id="XMLID_492_" fill="none" stroke="#FFFFFF" stroke-width="1.7025" stroke-miterlimit="10" x1="170.77" y1="310.806" x2="237.083" y2="310.806"/>
	</g>
	
		<rect x="162.454" y="252.837" fill="none" stroke="#3BADD8" stroke-width="0.8539" stroke-miterlimit="10" width="81.93" height="146.35"/>
	<rect x="244" y="190" fill="#FFFFFF" width="118" height="210"/>
	<g>
		<g>
			<g>
				<defs>
					<rect id="SVGID_5_" x="291.416" y="327.119" width="4.028" height="4.069"/>
				</defs>
				<clipPath id="SVGID_6_">
					<use xlink:href="#SVGID_5_"  overflow="visible"/>
				</clipPath>
				<path clip-path="url(#SVGID_6_)" fill="#F4270C" d="M293.45,330.227l1.258,0.758l-0.333-1.43l1.11-0.961l-1.464-0.126
					l-0.571-1.349l-0.571,1.349l-1.463,0.126l1.109,0.961l-0.332,1.43L293.45,330.227z M293.45,330.227"/>
			</g>
		</g>
		<g>
			<g>
				<defs>
					<rect id="SVGID_7_" x="296.147" y="327.119" width="4.028" height="4.069"/>
				</defs>
				<clipPath id="SVGID_8_">
					<use xlink:href="#SVGID_7_"  overflow="visible"/>
				</clipPath>
				<path clip-path="url(#SVGID_8_)" fill="#F4270C" d="M298.182,330.227l1.259,0.758l-0.333-1.43l1.109-0.961l-1.463-0.126
					l-0.572-1.349l-0.57,1.349l-1.464,0.126l1.11,0.961l-0.334,1.43L298.182,330.227z M298.182,330.227"/>
			</g>
		</g>
		<g>
			<g>
				<defs>
					<rect id="SVGID_9_" x="300.879" y="327.119" width="4.029" height="4.069"/>
				</defs>
				<clipPath id="SVGID_10_">
					<use xlink:href="#SVGID_9_"  overflow="visible"/>
				</clipPath>
				<path clip-path="url(#SVGID_10_)" fill="#F4270C" d="M302.914,330.227l1.258,0.758l-0.333-1.43l1.11-0.961l-1.464-0.126
					l-0.571-1.349l-0.571,1.349l-1.464,0.126l1.109,0.961l-0.332,1.43L302.914,330.227z M302.914,330.227"/>
			</g>
		</g>
		<g>
			<g>
				<defs>
					<rect id="SVGID_11_" x="305.611" y="327.119" width="4.028" height="4.069"/>
				</defs>
				<clipPath id="SVGID_12_">
					<use xlink:href="#SVGID_11_"  overflow="visible"/>
				</clipPath>
				<path clip-path="url(#SVGID_12_)" fill="#F4270C" d="M307.646,330.227l1.258,0.758l-0.333-1.43l1.109-0.961l-1.463-0.126
					l-0.571-1.349l-0.571,1.349l-1.463,0.126l1.109,0.961l-0.333,1.43L307.646,330.227z M307.646,330.227"/>
			</g>
		</g>
		<g>
			<g>
				<defs>
					<rect id="SVGID_13_" x="310.343" y="327.119" width="4.028" height="4.069"/>
				</defs>
				<clipPath id="SVGID_14_">
					<use xlink:href="#SVGID_13_"  overflow="visible"/>
				</clipPath>
				<path clip-path="url(#SVGID_14_)" fill="#F4270C" d="M312.378,330.227l1.257,0.758l-0.332-1.43l1.109-0.961l-1.464-0.126
					l-0.57-1.349l-0.572,1.349l-1.463,0.126l1.109,0.961l-0.333,1.43L312.378,330.227z M312.378,330.227"/>
			</g>
		</g>
	</g>
	<rect x="244" y="190" fill="#FFC915" width="118" height="113"/>
	<path fill-rule="evenodd" clip-rule="evenodd" fill="#253A7C" d="M265.203,197.001c-0.408-0.408-0.898-0.612-1.429-0.612h-4.243
		l-3.632,3.59l3.632,3.632h2.04l-2.896-2.897h3.876c0.163,0,0.326,0.041,0.449,0.163l2.08,2.122
		c0.408,0.407,0.898,0.612,1.428,0.612h4.285l3.591-3.632l-3.591-3.59h-2.081l2.896,2.896h-3.876c-0.163,0-0.285-0.082-0.408-0.163
		L265.203,197.001L265.203,197.001z M263.774,197.817c0.163,0,0.286,0.082,0.408,0.204l2.081,2.081
		c0.408,0.408,0.856,0.612,1.469,0.612h3.876l-1.428,1.429h-3.632c-0.203,0-0.326-0.041-0.448-0.164l-2.081-2.081
		c-0.408-0.408-0.856-0.612-1.469-0.612h-3.876l1.428-1.469H263.774L263.774,197.817z"/>
	<g>
		<defs>
			<rect id="XMLID_3_" x="276" y="215" width="54" height="80"/>
		</defs>
		<use xlink:href="#XMLID_3_"  overflow="visible" fill-rule="evenodd" clip-rule="evenodd" fill="#253A7C"/>
		<clipPath id="XMLID_6_">
			<use xlink:href="#XMLID_3_"  overflow="visible"/>
		</clipPath>
	</g>
	<rect x="249.057" y="335.533" fill="none" width="104.063" height="25.752"/>
	<text transform="matrix(1 0 0 1 254.8496 339.6846)"><tspan x="0" y="0" font-family="'Ubuntu'" font-size="5.349">Het was in de omstreken van een gure </tspan><tspan x="0.607" y="6.419" font-family="'Ubuntu'" font-size="5.349">februaridag rond het middaguur. Mijn </tspan><tspan x="13.421" y="12.837" font-family="'Ubuntu'" font-size="5.349">zoon lag in zijn inderwagen </tspan><tspan x="42.949" y="19.257" font-family="'Ubuntu'" font-size="5.349">.....</tspan></text>
	<text transform="matrix(1 0 0 1 270.0947 318.7402)" font-family="'Ubuntu-Bold'" font-size="9.8246">VERGEZOCHT</text>
	<text transform="matrix(1 0 0 1 282.7949 324.3379)" font-family="'Ubuntu-Light'" font-size="3.2749">door Molovich -27 juni 2011</text>
	<rect x="276" y="375" fill="#2D77BC" width="54" height="14"/>
	<text transform="matrix(1 0 0 1 294.873 384.5176)" fill="#FFFFFF" font-family="'Ubuntu'" font-size="7.3139">LEES</text>
	<g>
		<g>
			<defs>
				<rect id="SVGID_15_" x="349.013" y="192.881" width="8.898" height="8.922"/>
			</defs>
			<clipPath id="SVGID_16_">
				<use xlink:href="#SVGID_15_"  overflow="visible"/>
			</clipPath>
			<path clip-path="url(#SVGID_16_)" fill="#253A7C" d="M357.828,201.325l-2.161-2.161c0.58-0.667,0.931-1.536,0.931-2.487
				c0-2.092-1.701-3.792-3.792-3.792c-2.093,0-3.793,1.702-3.793,3.792c0,2.091,1.702,3.793,3.793,3.793
				c0.95,0,1.82-0.351,2.486-0.931l2.162,2.161c0.051,0.052,0.12,0.079,0.188,0.079c0.066,0,0.136-0.025,0.187-0.079
				C357.931,201.598,357.931,201.428,357.828,201.325L357.828,201.325z M349.544,196.677c0-1.798,1.463-3.259,3.26-3.259
				c1.799,0,3.26,1.463,3.26,3.259c0,1.797-1.461,3.262-3.26,3.262C351.007,199.939,349.544,198.476,349.544,196.677
				L349.544,196.677z M349.544,196.677"/>
		</g>
	</g>
	<g>
		<text transform="matrix(1 0 0 1 287.5303 209.6074)" fill="#253A7C" font-family="'Ubuntu-Light'" font-size="6.6589">POPULAIR</text>
	</g>
	<g>
		<g>
			<defs>
				<rect id="SVGID_17_" x="339.007" y="193.234" width="6.964" height="8.215"/>
			</defs>
			<clipPath id="SVGID_18_">
				<use xlink:href="#SVGID_17_"  overflow="visible"/>
			</clipPath>
			<path clip-path="url(#SVGID_18_)" fill="#253A7C" d="M342.457,197.655h0.055c0.496-0.008,0.897-0.183,1.194-0.517
				c0.652-0.735,0.544-1.996,0.532-2.116c-0.043-0.903-0.47-1.335-0.822-1.537c-0.262-0.151-0.569-0.232-0.912-0.239h-0.028
				c-0.188,0-0.558,0.031-0.911,0.232c-0.356,0.202-0.79,0.634-0.832,1.543c-0.012,0.12-0.12,1.381,0.531,2.116
				C341.56,197.472,341.961,197.647,342.457,197.655L342.457,197.655z M341.185,195.064c0-0.005,0.002-0.01,0.002-0.014
				c0.056-1.215,0.918-1.345,1.287-1.345h0.021c0.458,0.01,1.235,0.196,1.288,1.345c0,0.005,0,0.01,0.002,0.014
				c0.001,0.012,0.12,1.164-0.419,1.771c-0.214,0.24-0.498,0.359-0.873,0.362h-0.017c-0.373-0.003-0.659-0.122-0.871-0.362
				C341.067,196.232,341.183,195.075,341.185,195.064L341.185,195.064z M341.185,195.064"/>
			<path clip-path="url(#SVGID_18_)" fill="#253A7C" d="M345.967,199.746v-0.005c0-0.014-0.002-0.027-0.002-0.042
				c-0.011-0.335-0.032-1.12-0.768-1.371c-0.005-0.002-0.012-0.003-0.018-0.005c-0.764-0.195-1.399-0.635-1.406-0.64
				c-0.103-0.073-0.246-0.048-0.318,0.056s-0.048,0.246,0.056,0.319c0.028,0.02,0.704,0.489,1.548,0.706
				c0.395,0.141,0.438,0.563,0.45,0.949c0,0.015,0,0.029,0.002,0.042c0.001,0.152-0.009,0.388-0.036,0.523
				c-0.274,0.156-1.35,0.695-2.986,0.695c-1.631,0-2.714-0.541-2.989-0.697c-0.027-0.135-0.04-0.371-0.036-0.523
				c0-0.014,0.002-0.027,0.002-0.042c0.012-0.386,0.056-0.808,0.45-0.949c0.844-0.217,1.519-0.688,1.548-0.707
				c0.104-0.073,0.128-0.215,0.056-0.318c-0.073-0.104-0.216-0.129-0.318-0.056c-0.007,0.005-0.64,0.446-1.407,0.641
				c-0.007,0.001-0.012,0.003-0.017,0.005c-0.735,0.253-0.757,1.037-0.768,1.371c0,0.016,0,0.029-0.002,0.042v0.005
				c-0.001,0.088-0.003,0.541,0.087,0.768c0.017,0.044,0.047,0.081,0.088,0.106c0.051,0.034,1.27,0.81,3.308,0.81
				s3.257-0.778,3.308-0.81c0.039-0.025,0.071-0.063,0.088-0.106C345.97,200.287,345.968,199.834,345.967,199.746L345.967,199.746z
				 M345.967,199.746"/>
		</g>
	</g>
	<rect x="362" y="193" fill="#FFFFFF" width="117" height="208"/>
	<g>
		<defs>
			<rect id="XMLID_1_" x="362" y="193" width="117" height="208"/>
		</defs>
		<use xlink:href="#XMLID_1_"  overflow="visible" fill="#FFFFFF"/>
		<clipPath id="XMLID_7_">
			<use xlink:href="#XMLID_1_"  overflow="visible"/>
		</clipPath>
		<rect x="362" y="207" clip-path="url(#XMLID_7_)" fill="#253A7C" width="117" height="64"/>
		<rect x="420" y="348" clip-path="url(#XMLID_7_)" fill="#253A7C" width="44" height="46"/>
		<rect x="473" y="348" clip-path="url(#XMLID_7_)" fill="#253A7C" width="42" height="46"/>
		<rect x="362" y="193" clip-path="url(#XMLID_7_)" fill="#FFC915" width="117" height="14"/>
		<g clip-path="url(#XMLID_7_)">
			<text transform="matrix(1 0 0 1 382.2432 235.2031)" fill="#FFFFFF" font-family="'Ubuntu'" font-size="11.1543">ONVERWACHT</text>
		</g>
		<g clip-path="url(#XMLID_7_)">
			<circle fill="none" stroke="#FFC915" stroke-width="0.2166" stroke-miterlimit="10" cx="410.785" cy="266.678" r="2.761"/>
			<circle fill="none" stroke="#FFC915" stroke-width="0.2166" stroke-miterlimit="10" cx="420.098" cy="266.678" r="2.761"/>
			<circle fill="none" stroke="#FFC915" stroke-width="0.2166" stroke-miterlimit="10" cx="429.628" cy="266.678" r="2.762"/>
		</g>
		<circle clip-path="url(#XMLID_7_)" fill="#FFC915" cx="410.733" cy="266.723" r="1.898"/>
		<g clip-path="url(#XMLID_7_)">
		</g>
		<g clip-path="url(#XMLID_7_)">
			<text transform="matrix(1 0 0 1 368.4668 282.2598)" fill="#253A7C" font-family="'Ubuntu'" font-size="5.4147">Nieuw</text>
		</g>
		<g clip-path="url(#XMLID_7_)">
			<text transform="matrix(1 0 0 1 368.2842 343.8789)" fill="#253A7C" font-family="'Ubuntu'" font-size="5.4147">Aanbevolen</text>
		</g>
		<g clip-path="url(#XMLID_7_)">
			<text transform="matrix(1 0 0 1 381.2471 312.5625)" fill="#FFFFFF" font-family="'Ubuntu'" font-size="8.3386">Zoon</text>
		</g>
		<g clip-path="url(#XMLID_7_)">
			<text transform="matrix(1 0 0 1 386.0137 368.5273)"><tspan x="0" y="0" fill="#FFFFFF" font-family="'Ubuntu'" font-size="8.3386">De</tspan><tspan x="-4.761" y="10.007" fill="#FFFFFF" font-family="'Ubuntu'" font-size="8.3386">Leew</tspan></text>
		</g>
		<g clip-path="url(#XMLID_7_)">
			<text transform="matrix(1 0 0 1 437.5703 307.5596)"><tspan x="0" y="0" fill="#FFFFFF" font-family="'Ubuntu'" font-size="8.3386">Het</tspan><tspan x="-6.758" y="10.007" fill="#FFFFFF" font-family="'Ubuntu'" font-size="8.3386">Gebrek</tspan></text>
		</g>
		<g clip-path="url(#XMLID_7_)">
			
				<image overflow="visible" opacity="0.75" width="29" height="29" xlink:href="83848D14.png"  transform="matrix(1 0 0 1 446.0254 367.0254)">
			</image>
			<g>
				<circle fill="#2D77BC" cx="459.711" cy="381.226" r="13.001"/>
			</g>
		</g>
		<polygon clip-path="url(#XMLID_7_)" fill="#FFFFFF" points="466.809,377 466.809,377 452.027,377 452.027,377 452.027,377 
			452.027,377 466.809,377 466.809,377 		"/>
		<polygon clip-path="url(#XMLID_7_)" fill="#FFFFFF" points="466.809,381 466.809,381 452.027,381 452.027,381 452.027,381 
			452.027,381 466.809,381 466.809,381 		"/>
		<polygon clip-path="url(#XMLID_7_)" fill="#FFFFFF" points="466.809,385 466.809,385 452.027,385 452.027,385 452.027,385 
			452.027,385 466.809,385 466.809,385 		"/>
		<circle clip-path="url(#XMLID_7_)" fill="#FFFFFF" cx="455.78" cy="377.072" r="1.895"/>
		<circle clip-path="url(#XMLID_7_)" fill="#FFFFFF" cx="463.036" cy="381.296" r="1.896"/>
		<circle clip-path="url(#XMLID_7_)" fill="#FFFFFF" cx="455.78" cy="385.735" r="1.895"/>
		<path clip-path="url(#XMLID_7_)" fill-rule="evenodd" clip-rule="evenodd" fill="#253A7C" d="M374.53,197.239
			c-0.405-0.405-0.891-0.607-1.417-0.607h-4.21l-3.603,3.561l3.603,3.604h2.025l-2.876-2.875h3.847c0.162,0,0.322,0.041,0.445,0.162
			l2.063,2.105c0.405,0.404,0.891,0.607,1.417,0.607h4.25l3.563-3.604l-3.563-3.561h-2.064l2.875,2.873h-3.847
			c-0.161,0-0.282-0.081-0.404-0.162L374.53,197.239L374.53,197.239z M373.113,198.048c0.163,0,0.283,0.081,0.405,0.203l2.064,2.064
			c0.404,0.406,0.85,0.608,1.456,0.608h3.847l-1.418,1.417h-3.602c-0.203,0-0.324-0.04-0.445-0.161l-2.064-2.065
			c-0.404-0.405-0.85-0.607-1.457-0.607h-3.847l1.417-1.457H373.113L373.113,198.048z"/>
		<g clip-path="url(#XMLID_7_)">
			<g>
				<defs>
					<rect id="SVGID_19_" x="465.851" y="195.789" width="8.826" height="8.851"/>
				</defs>
				<clipPath id="SVGID_20_">
					<use xlink:href="#SVGID_19_"  overflow="visible"/>
				</clipPath>
				<path clip-path="url(#SVGID_20_)" fill="#253A7C" d="M474.596,204.166l-2.145-2.145c0.575-0.661,0.923-1.524,0.923-2.466
					c0-2.076-1.688-3.763-3.762-3.763c-2.075,0-3.762,1.689-3.762,3.763c0,2.074,1.688,3.761,3.762,3.761
					c0.943,0,1.806-0.348,2.469-0.923l2.142,2.144c0.052,0.051,0.12,0.079,0.187,0.079c0.067,0,0.136-0.026,0.187-0.079
					C474.696,204.437,474.696,204.268,474.596,204.166L474.596,204.166z M466.377,199.555c0-1.785,1.451-3.234,3.233-3.234
					c1.785,0,3.233,1.452,3.233,3.234c0,1.782-1.448,3.236-3.233,3.236C467.828,202.791,466.377,201.339,466.377,199.555
					L466.377,199.555z M466.377,199.555"/>
			</g>
		</g>
		<g clip-path="url(#XMLID_7_)">
			<g>
				<defs>
					<rect id="SVGID_21_" x="455.923" y="196.139" width="6.909" height="8.15"/>
				</defs>
				<clipPath id="SVGID_22_">
					<use xlink:href="#SVGID_21_"  overflow="visible"/>
				</clipPath>
				<path clip-path="url(#SVGID_22_)" fill="#253A7C" d="M459.347,200.525h0.055c0.491-0.008,0.891-0.181,1.185-0.513
					c0.647-0.729,0.539-1.98,0.527-2.1c-0.042-0.896-0.465-1.325-0.814-1.525c-0.262-0.149-0.565-0.229-0.906-0.237h-0.027
					c-0.187,0-0.554,0.03-0.905,0.23c-0.353,0.2-0.782,0.628-0.824,1.531c-0.012,0.12-0.119,1.37,0.527,2.1
					C458.456,200.344,458.854,200.517,459.347,200.525L459.347,200.525z M458.085,197.955c0-0.005,0.001-0.01,0.001-0.013
					c0.055-1.205,0.911-1.335,1.278-1.335h0.02c0.454,0.011,1.225,0.195,1.276,1.335c0,0.005,0,0.01,0.003,0.013
					c0.001,0.012,0.119,1.155-0.416,1.757c-0.211,0.238-0.493,0.356-0.865,0.36h-0.017c-0.369-0.004-0.655-0.122-0.863-0.36
					C457.968,199.113,458.082,197.965,458.085,197.955L458.085,197.955z M458.085,197.955"/>
				<path clip-path="url(#SVGID_22_)" fill="#253A7C" d="M462.828,202.6v-0.006c0-0.013-0.001-0.025-0.001-0.042
					c-0.011-0.333-0.033-1.11-0.763-1.359c-0.004-0.002-0.012-0.003-0.017-0.005c-0.758-0.193-1.389-0.631-1.396-0.635
					c-0.102-0.073-0.244-0.047-0.316,0.055s-0.047,0.243,0.057,0.316c0.028,0.021,0.696,0.485,1.534,0.702
					c0.392,0.139,0.436,0.558,0.447,0.941c0,0.015,0,0.027,0.001,0.041c0.001,0.15-0.008,0.385-0.035,0.52
					c-0.271,0.154-1.34,0.689-2.963,0.689c-1.618,0-2.691-0.536-2.966-0.691c-0.027-0.135-0.037-0.367-0.035-0.52
					c0-0.014,0.002-0.026,0.002-0.042c0.011-0.382,0.057-0.802,0.446-0.94c0.838-0.215,1.507-0.684,1.536-0.702
					c0.103-0.072,0.127-0.213,0.055-0.315c-0.072-0.103-0.212-0.128-0.316-0.056c-0.007,0.005-0.634,0.442-1.395,0.635
					c-0.006,0.002-0.012,0.004-0.018,0.005c-0.729,0.251-0.75,1.028-0.761,1.36c0,0.016,0,0.028-0.001,0.041v0.006
					c-0.003,0.088-0.004,0.536,0.085,0.762c0.018,0.043,0.046,0.08,0.088,0.105c0.051,0.033,1.259,0.804,3.28,0.804
					c2.022,0,3.231-0.771,3.282-0.804c0.038-0.025,0.071-0.063,0.087-0.105C462.831,203.136,462.829,202.687,462.828,202.6
					L462.828,202.6z M462.828,202.6"/>
			</g>
		</g>
		<rect x="438" y="276" clip-path="url(#XMLID_7_)" fill="#2D77BC" width="35" height="8"/>
		<g clip-path="url(#XMLID_7_)">
			<text transform="matrix(1 0 0 1 443.584 281.7656)" fill="#FFFFFF" font-family="'Ubuntu'" font-size="5.4147">Verassing</text>
		</g>
		<rect x="369" y="288" clip-path="url(#XMLID_7_)" fill="#253A7C" width="43" height="46"/>
		<rect x="369" y="347" clip-path="url(#XMLID_7_)" fill="#253A7C" width="43" height="47"/>
		<rect x="420" y="288" clip-path="url(#XMLID_7_)" fill="#253A7C" width="44" height="46"/>
		<rect x="471" y="288" clip-path="url(#XMLID_7_)" fill="#253A7C" width="43" height="46"/>
	</g>
</g>
</svg>
