<?xml version="1.0" encoding="utf-8"?>
<!-- Generator: Adobe Illustrator 16.0.0, SVG Export Plug-In . SVG Version: 6.00 Build 0)  -->
<!DOCTYPE svg PUBLIC "-//W3C//DTD SVG 1.1//EN" "http://www.w3.org/Graphics/SVG/1.1/DTD/svg11.dtd">
<svg version="1.1" xmlns="http://www.w3.org/2000/svg" xmlns:xlink="http://www.w3.org/1999/xlink" x="0px" y="0px" width="500px"
	 height="414px" viewBox="0 0 500 414" enable-background="new 0 0 500 414" xml:space="preserve">
<g id="Layer_2">
	<rect x="-0.5" y="0.5" fill="#FFFFFF" stroke="#000000" stroke-miterlimit="10" width="500" height="414"/>
</g>
<g id="Layer_1">
	<g>
		<defs>
			<rect id="XMLID_18_" x="107" y="214" width="99" height="94"/>
		</defs>
		<clipPath id="XMLID_7_">
			<use xlink:href="#XMLID_18_"  overflow="visible"/>
		</clipPath>
		<g transform="matrix(1 0 0 1 0 -1.525879e-005)" clip-path="url(#XMLID_7_)">
			
				<image overflow="visible" width="2560" height="1600" xlink:href="C7A48AC1.jpg"  transform="matrix(0.0415 0 0 0.0741 103.2959 201.499)">
			</image>
		</g>
	</g>
	<g id="XMLID_12_">
		
			<image overflow="visible" opacity="0.75" width="94" height="101" xlink:href="C7A48AC3.png"  transform="matrix(1 0 0 1 203.3599 211.3604)">
		</image>
		<g>
			<rect x="207.5" y="213.5" fill="none" stroke="#000000" stroke-miterlimit="10" width="86" height="94"/>
		</g>
	</g>
	<rect x="210.637" y="218.984" fill="none" width="78.015" height="85.033"/>
	<text transform="matrix(1 0 0 1 210.6367 225.4824)"><tspan x="0" y="0" fill="#253A7C" font-family="'NSSans-Bold'" font-size="9.1523">Beroemd</tspan><tspan x="0" y="19.431" font-family="'NSSans'" font-size="8.0962">Vlak oordat ik de bus </tspan><tspan x="0" y="29.146" font-family="'NSSans'" font-size="8.0962">uitstap bedank ik de </tspan><tspan x="0" y="38.862" font-family="'NSSans'" font-size="8.0962">buschauffeur via de </tspan><tspan x="0" y="48.577" font-family="'NSSans'" font-size="8.0962">spiegel voor zijn </tspan><tspan x="0" y="58.293" font-family="'NSSans'" font-size="8.0962">diensten...</tspan></text>
	<g>
		<g>
			<path fill="#FFC915" d="M181.979,213.7h-5.361v17.907c0,0.167,0.199,0.248,0.317,0.132l5.044-5.043l5.042,5.043
				c0.118,0.116,0.319,0.035,0.319-0.132V213.7H181.979z M181.979,213.7"/>
			<rect x="176.618" y="213.7" fill="#E2A807" width="10.722" height="3.687"/>
		</g>
		<g>
			<path fill="#FFC915" d="M199.253,226.816c-3.418,0-6.197-2.779-6.197-6.195s2.779-6.197,6.197-6.197
				c3.416,0,6.195,2.781,6.195,6.197S202.669,226.816,199.253,226.816L199.253,226.816z M199.253,214.801
				c-3.21,0-5.819,2.611-5.819,5.82c0,3.208,2.609,5.819,5.819,5.819c3.208,0,5.819-2.611,5.819-5.819
				C205.071,217.412,202.461,214.801,199.253,214.801L199.253,214.801z M199.253,214.801"/>
			<path fill="#FFC915" d="M201.055,222.985c-0.056,0-0.108-0.024-0.146-0.067l-1.801-2.178c-0.027-0.032-0.044-0.075-0.044-0.119
				v-3.615c0-0.105,0.085-0.189,0.19-0.189c0.104,0,0.188,0.084,0.188,0.189v3.547l1.759,2.124c0.066,0.08,0.055,0.199-0.026,0.266
				C201.139,222.971,201.097,222.985,201.055,222.985L201.055,222.985z M201.055,222.985"/>
		</g>
		<text transform="matrix(1 0 0 1 193.0562 231.793)" fill="#FFC915" font-family="'NSSans-Bold'" font-size="3.5201">15 min</text>
	</g>
	<g>
		<defs>
			<rect id="XMLID_24_" x="302" y="314" width="99" height="94"/>
		</defs>
		<clipPath id="XMLID_8_">
			<use xlink:href="#XMLID_24_"  overflow="visible"/>
		</clipPath>
		<g transform="matrix(1 0 0 1 0 0)" clip-path="url(#XMLID_8_)">
			
				<image overflow="visible" width="2560" height="1600" xlink:href="C7A48AC6.jpg"  transform="matrix(0.0415 0 0 0.0741 298.3096 301.8213)">
			</image>
		</g>
	</g>
	<g id="XMLID_10_">
		
			<image overflow="visible" opacity="0.75" width="94" height="101" xlink:href="C7A48AC7.png"  transform="matrix(1 0 0 1 398.3604 311.3604)">
		</image>
		<g>
			<rect x="402.5" y="314.5" fill="none" stroke="#000000" stroke-miterlimit="10" width="86" height="93"/>
		</g>
	</g>
	<rect x="405.65" y="319.307" fill="none" width="78.016" height="85.033"/>
	<text transform="matrix(1 0 0 1 405.6494 325.8037)"><tspan x="0" y="0" fill="#253A7C" font-family="'NSSans-Bold'" font-size="9.1523">Beroemd</tspan><tspan x="0" y="19.431" font-family="'NSSans'" font-size="8.0962">Vlak oordat ik de bus </tspan><tspan x="0" y="29.146" font-family="'NSSans'" font-size="8.0962">uitstap bedank ik de </tspan><tspan x="0" y="38.862" font-family="'NSSans'" font-size="8.0962">buschauffeur via de </tspan><tspan x="0" y="48.577" font-family="'NSSans'" font-size="8.0962">spiegel voor zijn </tspan><tspan x="0" y="58.293" font-family="'NSSans'" font-size="8.0962">diensten...</tspan></text>
	<g>
		<g>
			<path fill="#FFC915" d="M376.992,314.023h-5.36v17.906c0,0.168,0.199,0.248,0.316,0.133l5.044-5.045l5.042,5.045
				c0.118,0.115,0.319,0.035,0.319-0.133v-17.906H376.992z M376.992,314.023"/>
			<rect x="371.632" y="314.023" fill="#E2A807" width="10.722" height="3.686"/>
		</g>
		<g>
			<path fill="#FFC915" d="M394.267,327.14c-3.417,0-6.197-2.779-6.197-6.196c0-3.416,2.78-6.197,6.197-6.197
				c3.416,0,6.195,2.781,6.195,6.197C400.462,324.36,397.683,327.14,394.267,327.14L394.267,327.14z M394.267,315.124
				c-3.209,0-5.819,2.611-5.819,5.819c0,3.209,2.61,5.819,5.819,5.819c3.208,0,5.82-2.61,5.82-5.819
				C400.085,317.735,397.475,315.124,394.267,315.124L394.267,315.124z M394.267,315.124"/>
			<path fill="#FFC915" d="M396.068,323.309c-0.056,0-0.109-0.024-0.146-0.068l-1.801-2.177c-0.028-0.032-0.045-0.075-0.045-0.12
				v-3.614c0-0.106,0.085-0.19,0.189-0.19c0.104,0,0.188,0.084,0.188,0.19v3.546l1.758,2.125c0.067,0.079,0.057,0.199-0.025,0.266
				C396.152,323.293,396.11,323.309,396.068,323.309L396.068,323.309z M396.068,323.309"/>
		</g>
		<text transform="matrix(1 0 0 1 388.0693 332.1162)" fill="#FFC915" font-family="'NSSans-Bold'" font-size="3.5201">15 min</text>
	</g>
	<g>
		<defs>
			<rect id="XMLID_21_" x="302" y="214" width="100" height="95"/>
		</defs>
		<clipPath id="XMLID_9_">
			<use xlink:href="#XMLID_21_"  overflow="visible"/>
		</clipPath>
		<g transform="matrix(1 0 0 1 0 -1.525879e-005)" clip-path="url(#XMLID_9_)">
			
				<image overflow="visible" width="1920" height="1080" xlink:href="C7A48AC2.jpg"  transform="matrix(0.0905 0 0 0.0905 267.0137 212.626)">
			</image>
		</g>
	</g>
	<g id="XMLID_16_">
		
			<image overflow="visible" opacity="0.75" width="94" height="101" xlink:href="C7A48AC2.png"  transform="matrix(1 0 0 1 398.3604 211.3604)">
		</image>
		<g>
			<rect x="402.5" y="214.5" fill="none" stroke="#000000" stroke-miterlimit="10" width="87" height="94"/>
		</g>
	</g>
	<rect x="406.18" y="219.688" fill="none" width="78.014" height="85.032"/>
	<text transform="matrix(1 0 0 1 406.1787 226.1855)"><tspan x="0" y="0" fill="#253A7C" font-family="'NSSans-Bold'" font-size="9.1523">Vergezocht</tspan><tspan x="0" y="20.698" font-family="'NSSans'" font-size="8.0962">Het was in de </tspan><tspan x="0" y="30.414" font-family="'NSSans'" font-size="8.0962">omstreken van een </tspan><tspan x="0" y="40.129" font-family="'NSSans'" font-size="8.0962">gure februaridag </tspan><tspan x="0" y="49.845" font-family="'NSSans'" font-size="8.0962">rond het middaguur. </tspan><tspan x="0" y="59.561" font-family="'NSSans'" font-size="8.0962">Mijn zoon lag in zijn </tspan><tspan x="0" y="69.275" font-family="'NSSans'" font-size="8.0962">...</tspan></text>
	<g>
		<g>
			<path fill="#FFC915" d="M377.521,214.405h-5.361v17.906c0,0.167,0.2,0.248,0.317,0.132l5.044-5.044l5.042,5.044
				c0.118,0.116,0.319,0.035,0.319-0.132v-17.906H377.521z M377.521,214.405"/>
			<rect x="372.159" y="214.405" fill="#E2A807" width="10.723" height="3.686"/>
		</g>
		<g>
			<path fill="#FFC915" d="M394.795,227.521c-3.418,0-6.197-2.779-6.197-6.195s2.779-6.197,6.197-6.197
				c3.416,0,6.195,2.781,6.195,6.197S398.211,227.521,394.795,227.521L394.795,227.521z M394.795,215.505
				c-3.21,0-5.82,2.611-5.82,5.82c0,3.208,2.61,5.819,5.82,5.819c3.208,0,5.819-2.611,5.819-5.819
				C400.612,218.116,398.003,215.505,394.795,215.505L394.795,215.505z M394.795,215.505"/>
			<path fill="#FFC915" d="M396.597,223.689c-0.056,0-0.108-0.023-0.146-0.067l-1.801-2.178c-0.027-0.033-0.044-0.075-0.044-0.119
				v-3.615c0-0.105,0.084-0.19,0.189-0.19c0.103,0,0.188,0.085,0.188,0.19v3.547l1.759,2.125c0.066,0.079,0.056,0.198-0.025,0.265
				C396.681,223.675,396.638,223.689,396.597,223.689L396.597,223.689z M396.597,223.689"/>
		</g>
		<text transform="matrix(1 0 0 1 388.5977 232.4971)" fill="#FFC915" font-family="'NSSans-Bold'" font-size="3.5201">15 min</text>
	</g>
	<g>
		<defs>
			<rect id="XMLID_14_" x="107" y="313" width="99" height="94"/>
		</defs>
		<clipPath id="XMLID_13_">
			<use xlink:href="#XMLID_14_"  overflow="visible"/>
		</clipPath>
		<g transform="matrix(1 0 0 1 -7.629395e-006 -3.051758e-005)" clip-path="url(#XMLID_13_)">
			
				<image overflow="visible" width="1920" height="1080" xlink:href="C7A48ACE.jpg"  transform="matrix(0.0905 0 0 0.0905 71.4727 311.3643)">
			</image>
		</g>
	</g>
	<g id="XMLID_5_">
		
			<image overflow="visible" opacity="0.75" width="95" height="101" xlink:href="C7A48ACF.png"  transform="matrix(1 0 0 1 203.3599 310.3604)">
		</image>
		<g>
			<polygon fill="none" stroke="#000000" stroke-miterlimit="10" points="294.5,407.156 207.5,406.98 207.5,313.258 294.5,313.434 
							"/>
		</g>
	</g>
	<rect x="210.637" y="318.428" fill="none" width="78.015" height="85.032"/>
	<text transform="matrix(1 0 0 1 210.6367 324.9238)"><tspan x="0" y="0" fill="#253A7C" font-family="'NSSans-Bold'" font-size="9.1523">Vergezocht</tspan><tspan x="0" y="20.698" font-family="'NSSans'" font-size="8.0962">Het was in de </tspan><tspan x="0" y="30.414" font-family="'NSSans'" font-size="8.0962">omstreken van een </tspan><tspan x="0" y="40.129" font-family="'NSSans'" font-size="8.0962">gure februaridag </tspan><tspan x="0" y="49.845" font-family="'NSSans'" font-size="8.0962">rond het middaguur. </tspan><tspan x="0" y="59.561" font-family="'NSSans'" font-size="8.0962">Mijn zoon lag in zijn </tspan><tspan x="0" y="69.275" font-family="'NSSans'" font-size="8.0962">...</tspan></text>
	<g>
		<g>
			<path fill="#FFC915" d="M181.979,313.144h-5.361v17.906c0,0.167,0.199,0.249,0.317,0.133l5.044-5.044l5.042,5.044
				c0.118,0.116,0.319,0.034,0.319-0.133v-17.906H181.979z M181.979,313.144"/>
			<rect x="176.618" y="313.144" fill="#E2A807" width="10.722" height="3.687"/>
		</g>
		<g>
			<path fill="#FFC915" d="M199.253,326.259c-3.418,0-6.197-2.779-6.197-6.196c0-3.415,2.779-6.196,6.197-6.196
				c3.416,0,6.195,2.781,6.195,6.196C205.449,323.479,202.669,326.259,199.253,326.259L199.253,326.259z M199.253,314.244
				c-3.21,0-5.819,2.61-5.819,5.818c0,3.209,2.609,5.821,5.819,5.821c3.208,0,5.819-2.612,5.819-5.821
				C205.071,316.854,202.461,314.244,199.253,314.244L199.253,314.244z M199.253,314.244"/>
			<path fill="#FFC915" d="M201.055,322.428c-0.056,0-0.108-0.023-0.146-0.067l-1.801-2.177c-0.027-0.033-0.044-0.075-0.044-0.121
				v-3.614c0-0.105,0.085-0.189,0.19-0.189c0.104,0,0.188,0.084,0.188,0.189v3.547l1.759,2.125c0.066,0.08,0.055,0.199-0.026,0.266
				C201.139,322.414,201.097,322.428,201.055,322.428L201.055,322.428z M201.055,322.428"/>
		</g>
		<text transform="matrix(1 0 0 1 193.0562 331.2363)" fill="#FFC915" font-family="'NSSans-Bold'" font-size="3.5201">15 min</text>
	</g>
	<g>
		<defs>
			<rect id="XMLID_11_" y="3" width="499" height="176"/>
		</defs>
		<use xlink:href="#XMLID_11_"  overflow="visible" fill="#FFFFFF"/>
		<clipPath id="XMLID_15_">
			<use xlink:href="#XMLID_11_"  overflow="visible"/>
		</clipPath>
		<g transform="matrix(1 0 0 1 1.907349e-006 7.629395e-006)" clip-path="url(#XMLID_15_)">
			
				<image overflow="visible" width="1920" height="1080" xlink:href="C7A48AC3.jpg"  transform="matrix(0.284 0 0 0.274 -28.5781 -102.5439)">
			</image>
		</g>
	</g>
	<rect y="3" fill="#FFC915" width="499" height="23"/>
	<rect y="179" fill="#FFC915" width="499" height="23"/>
	<rect y="25" opacity="0.2" fill="#FFC915" width="499" height="154"/>
	<text transform="matrix(1 0 0 1 166.4941 76.4526)" fill="#FFFFFF" font-family="'Ubuntu'" font-size="24.488">ONVERWACHT</text>
	<g>
		<circle fill="none" stroke="#FFC915" stroke-width="0.352" stroke-miterlimit="10" cx="225.543" cy="162.743" r="7.121"/>
		<circle fill="none" stroke="#FFC915" stroke-width="0.352" stroke-miterlimit="10" cx="249.56" cy="162.743" r="7.121"/>
		<circle fill="none" stroke="#FFC915" stroke-width="0.352" stroke-miterlimit="10" cx="274.135" cy="162.743" r="7.121"/>
	</g>
	<circle fill="#FFC915" cx="225.462" cy="162.685" r="4.895"/>
	<path fill-rule="evenodd" clip-rule="evenodd" fill="#253A7C" d="M20.808,9.368C20.15,8.709,19.36,8.38,18.505,8.38h-6.842
		l-5.855,5.789l5.855,5.856h3.29l-4.67-4.672h6.25c0.262,0,0.525,0.066,0.723,0.263l3.355,3.421
		c0.657,0.658,1.447,0.987,2.303,0.987h6.907l5.79-5.856L29.82,8.38h-3.355l4.671,4.671h-6.25c-0.263,0-0.46-0.132-0.658-0.263
		L20.808,9.368L20.808,9.368z M18.505,10.683c0.264,0,0.46,0.132,0.659,0.33l3.354,3.354c0.658,0.658,1.382,0.987,2.369,0.987h6.25
		l-2.302,2.303h-5.856c-0.329,0-0.526-0.066-0.723-0.263L18.9,14.038c-0.658-0.658-1.381-0.987-2.368-0.987h-6.25l2.302-2.369
		H18.505L18.505,10.683z"/>
	<g>
		<g>
			<defs>
				<rect id="SVGID_1_" x="475.871" y="7.011" width="14.348" height="14.384"/>
			</defs>
			<clipPath id="SVGID_2_">
				<use xlink:href="#SVGID_1_"  overflow="visible"/>
			</clipPath>
			<path clip-path="url(#SVGID_2_)" fill="#253A7C" d="M490.085,20.625l-3.485-3.484c0.936-1.075,1.502-2.477,1.502-4.01
				c0-3.374-2.744-6.115-6.115-6.115c-3.373,0-6.115,2.745-6.115,6.115c0,3.371,2.745,6.115,6.115,6.115
				c1.532,0,2.935-0.566,4.01-1.501l3.485,3.485c0.083,0.083,0.194,0.127,0.301,0.127c0.109,0,0.22-0.041,0.303-0.127
				C490.251,21.065,490.251,20.792,490.085,20.625L490.085,20.625z M476.728,13.131c0-2.9,2.359-5.256,5.255-5.256
				c2.901,0,5.257,2.359,5.257,5.256c0,2.897-2.355,5.259-5.257,5.259C479.087,18.391,476.728,16.031,476.728,13.131L476.728,13.131
				z M476.728,13.131"/>
		</g>
	</g>
	<g>
		<g>
			<defs>
				<rect id="SVGID_3_" x="459.738" y="7.581" width="11.229" height="13.245"/>
			</defs>
			<clipPath id="SVGID_4_">
				<use xlink:href="#SVGID_3_"  overflow="visible"/>
			</clipPath>
			<path clip-path="url(#SVGID_4_)" fill="#253A7C" d="M465.302,14.708h0.087c0.801-0.013,1.448-0.294,1.927-0.833
				c1.052-1.186,0.877-3.218,0.857-3.413c-0.068-1.456-0.757-2.152-1.325-2.477c-0.423-0.244-0.918-0.375-1.47-0.386h-0.046
				c-0.304,0-0.898,0.049-1.47,0.375c-0.574,0.325-1.273,1.022-1.343,2.488c-0.019,0.194-0.193,2.227,0.859,3.413
				C463.854,14.414,464.501,14.695,465.302,14.708L465.302,14.708z M463.25,10.531c0-0.008,0.002-0.016,0.002-0.021
				c0.09-1.959,1.481-2.169,2.077-2.169h0.032c0.738,0.017,1.992,0.317,2.076,2.169c0,0.008,0,0.017,0.003,0.021
				c0.003,0.02,0.194,1.877-0.675,2.855c-0.344,0.388-0.803,0.58-1.407,0.585h-0.026c-0.602-0.005-1.063-0.197-1.404-0.585
				C463.061,12.413,463.248,10.547,463.25,10.531L463.25,10.531z M463.25,10.531"/>
			<path clip-path="url(#SVGID_4_)" fill="#253A7C" d="M470.96,18.08v-0.009c0-0.022-0.003-0.043-0.003-0.068
				c-0.017-0.542-0.052-1.806-1.237-2.21c-0.008-0.003-0.02-0.005-0.028-0.008c-1.231-0.314-2.257-1.025-2.267-1.033
				c-0.167-0.117-0.396-0.077-0.514,0.09c-0.117,0.167-0.077,0.396,0.09,0.514c0.046,0.033,1.134,0.79,2.494,1.139
				c0.637,0.227,0.708,0.907,0.727,1.53c0,0.024,0,0.046,0.003,0.068c0.002,0.246-0.013,0.625-0.058,0.844
				c-0.442,0.251-2.178,1.121-4.816,1.121c-2.628,0-4.374-0.872-4.818-1.123c-0.045-0.219-0.063-0.599-0.059-0.845
				c0-0.021,0.002-0.043,0.002-0.068c0.021-0.623,0.091-1.303,0.729-1.53c1.359-0.35,2.447-1.109,2.494-1.139
				c0.166-0.117,0.207-0.347,0.09-0.514c-0.118-0.167-0.347-0.207-0.514-0.09c-0.011,0.008-1.03,0.719-2.268,1.033
				c-0.011,0.003-0.02,0.005-0.027,0.008c-1.186,0.408-1.221,1.672-1.237,2.21c0,0.024,0,0.047-0.003,0.068v0.008
				c-0.003,0.142-0.006,0.872,0.14,1.237c0.027,0.071,0.076,0.131,0.142,0.172c0.082,0.055,2.047,1.307,5.333,1.307
				s5.251-1.254,5.333-1.307c0.063-0.041,0.115-0.101,0.143-0.172C470.965,18.951,470.963,18.222,470.96,18.08L470.96,18.08z
				 M470.96,18.08"/>
		</g>
	</g>
	<g>
		<text transform="matrix(1 0 0 1 139.7471 193.397)" fill="#253A7C" font-family="'NSSans'" font-size="8.0962">Nieuw</text>
	</g>
	<g>
		<text transform="matrix(1 0 0 1 36.96 193.397)" fill="#253A7C" font-family="'NSSans-Bold'" font-size="8.0962">Filter</text>
	</g>
	<g>
		<text transform="matrix(1 0 0 1 232.3623 193.0688)" fill="#253A7C" font-family="'NSSans'" font-size="8.0962">Aanbevolen</text>
	</g>
	<g>
		<text transform="matrix(1 0 0 1 341.5977 193.0688)" fill="#253A7C" font-family="'NSSans'" font-size="8.0962">Populair</text>
	</g>
	<g>
		<text transform="matrix(1 0 0 1 440.0293 193.0688)" fill="#253A7C" font-family="'NSSans'" font-size="8.0962">Verrassing</text>
	</g>
	<polygon fill="#FFC915" points="153.065,201 156.991,201 155.028,204.501 153.065,207.952 151.104,204.476 149.141,201 	"/>
	<rect x="5.5" y="213.5" fill="none" stroke="#FFC915" stroke-miterlimit="10" width="92" height="16"/>
	<rect x="6" y="233" fill="#FFC915" width="51" height="15"/>
	<rect x="59.5" y="232.5" fill="none" stroke="#FFC915" stroke-miterlimit="10" width="39" height="15"/>
	<rect x="5.5" y="250.5" fill="none" stroke="#FFC915" stroke-miterlimit="10" width="31" height="16"/>
	<rect x="40" y="251" fill="#FFC915" width="58" height="16"/>
	<g>
		<text transform="matrix(1 0 0 1 24.1992 223.4502)" fill="#253A7C" font-family="'NSSans'" font-size="6.5122">correspondentie</text>
	</g>
	<g>
		<text transform="matrix(1 0 0 1 18.2168 242.3447)" fill="#253A7C" font-family="'NSSans'" font-size="6.5122">non-fictie</text>
	</g>
	<g>
		<text transform="matrix(1 0 0 1 70.8477 242.3447)" fill="#253A7C" font-family="'NSSans'" font-size="6.5122">fictie</text>
	</g>
	<g>
		<text transform="matrix(1 0 0 1 11.7041 260.8086)" fill="#253A7C" font-family="'NSSans'" font-size="6.5122">opinie</text>
	</g>
	<g>
		<text transform="matrix(1 0 0 1 5.7197 281.9277)" fill="#253A7C" font-family="'NSSans'" font-size="6.5122">Duur</text>
	</g>
	<g>
		<text transform="matrix(1 0 0 1 5.4561 294.7773)" fill="#253A7C" font-family="'NSSans'" font-size="6.5122">Uitgave</text>
	</g>
	<g>
		<text transform="matrix(1 0 0 1 63.0093 260.8086)" fill="#253A7C" font-family="'NSSans'" font-size="6.5122">kort</text>
	</g>
	<path fill="#FFC915" d="M97,279.493c0-0.272-0.221-0.493-0.493-0.493H40.493c-0.272,0-0.493,0.221-0.493,0.493v0.014
		c0,0.272,0.221,0.493,0.493,0.493h56.014c0.272,0,0.493-0.221,0.493-0.493V279.493z"/>
	<g>
		<text transform="matrix(1 0 0 1 40.1284 274.9766)" fill="#253A7C" font-family="'NSSans'" font-size="3.5201">0 min</text>
	</g>
	<g>
		<text transform="matrix(1 0 0 1 66.8813 292.5752)" fill="#253A7C" font-family="'NSSans'" font-size="3.5201">alles</text>
	</g>
	<g>
		<text transform="matrix(1 0 0 1 87.4741 274.9766)" fill="#253A7C" font-family="'NSSans'" font-size="3.5201">30 min</text>
	</g>
	<path fill="#253A7C" d="M44,280.521c0,0.817-0.662,1.479-1.479,1.479h-0.042c-0.817,0-1.479-0.662-1.479-1.479v-1.041
		c0-0.817,0.662-1.479,1.479-1.479h0.042c0.817,0,1.479,0.662,1.479,1.479V280.521z"/>
	<line fill="none" stroke="#FFC915" stroke-miterlimit="10" x1="40" y1="295.5" x2="98" y2="295.5"/>
	<line fill="none" stroke="#FFC915" stroke-miterlimit="10" x1="97.5" y1="295" x2="97.5" y2="288"/>
	<polygon fill="#253A7C" points="93.466,289.409 95.8,289.409 94.632,291.429 93.466,293.449 92.299,291.429 91.132,289.409 	"/>
	<rect x="5" y="307" opacity="0.2" width="43" height="13"/>
	<rect x="52" y="307" fill="#FFC915" width="46" height="13"/>
	<g>
		<text transform="matrix(1 0 0 1 59.5771 315.9834)" fill="#253A7C" font-family="'NSSans'" font-size="6.5122">Toepassen</text>
	</g>
	<g>
		<text transform="matrix(1 0 0 1 11.7041 315.9834)" fill="#253A7C" font-family="'NSSans'" font-size="6.5122">Annuleren</text>
	</g>
</g>
</svg>
