<?xml version="1.0" encoding="utf-8"?>
<!-- Generator: Adobe Illustrator 16.0.0, SVG Export Plug-In . SVG Version: 6.00 Build 0)  -->
<!DOCTYPE svg PUBLIC "-//W3C//DTD SVG 1.1//EN" "http://www.w3.org/Graphics/SVG/1.1/DTD/svg11.dtd">
<svg version="1.1" id="Layer_1" xmlns="http://www.w3.org/2000/svg" xmlns:xlink="http://www.w3.org/1999/xlink" x="0px" y="0px"
	 width="500px" height="300px" viewBox="0 0 500 300" enable-background="new 0 0 500 300" xml:space="preserve">
<rect x="0.5" y="44.5" fill="#FFFFFF" stroke="#000000" stroke-miterlimit="10" width="54" height="212"/>
<rect x="49.5" y="44.5" fill="#FFFFFF" stroke="#000000" stroke-miterlimit="10" width="54" height="212"/>
<rect x="99.5" y="44.5" fill="#FFFFFF" stroke="#000000" stroke-miterlimit="10" width="54" height="212"/>
<rect x="198.5" y="44.5" fill="#FFFFFF" stroke="#000000" stroke-miterlimit="10" width="54" height="212"/>
<rect x="148.5" y="44.5" fill="#FFFFFF" stroke="#000000" stroke-miterlimit="10" width="54" height="212"/>
<rect x="297.5" y="44.5" fill="#FFFFFF" stroke="#000000" stroke-miterlimit="10" width="54" height="212"/>
<rect x="247.5" y="44.5" fill="#FFFFFF" stroke="#000000" stroke-miterlimit="10" width="54" height="212"/>
<rect x="346.5" y="44.5" fill="#FFFFFF" stroke="#000000" stroke-miterlimit="10" width="54" height="212"/>
<rect x="396.5" y="44.5" fill="#FFFFFF" stroke="#000000" stroke-miterlimit="10" width="54" height="212"/>
<rect x="445.5" y="44.5" fill="#FFFFFF" stroke="#000000" stroke-miterlimit="10" width="54" height="212"/>
<rect x="27.5" y="44.5" stroke="#000000" stroke-miterlimit="10" width="44" height="150"/>
<rect x="77.5" y="44.5" stroke="#000000" stroke-miterlimit="10" width="44" height="150"/>
<rect x="180.5" y="44.5" stroke="#000000" stroke-miterlimit="10" width="44" height="150"/>
<rect x="228.5" y="44.5" stroke="#000000" stroke-miterlimit="10" width="44" height="150"/>
<rect x="279.5" y="44.5" stroke="#000000" stroke-miterlimit="10" width="44" height="150"/>
<rect x="373.5" y="44.5" stroke="#000000" stroke-miterlimit="10" width="44" height="150"/>
<rect x="423.5" y="44.5" stroke="#000000" stroke-miterlimit="10" width="44" height="150"/>
</svg>
