<?xml version="1.0" encoding="utf-8"?>
<!-- Generator: Adobe Illustrator 16.0.0, SVG Export Plug-In . SVG Version: 6.00 Build 0)  -->
<!DOCTYPE svg PUBLIC "-//W3C//DTD SVG 1.1//EN" "http://www.w3.org/Graphics/SVG/1.1/DTD/svg11.dtd">
<svg version="1.1" id="Layer_1" xmlns="http://www.w3.org/2000/svg" xmlns:xlink="http://www.w3.org/1999/xlink" x="0px" y="0px"
	 width="500px" height="400px" viewBox="0 0 500 400" enable-background="new 0 0 500 400" xml:space="preserve">
<rect x="28.672" y="16.423" fill="none" stroke="#3AAED9" stroke-width="2.1371" stroke-miterlimit="10" width="203.059" height="368.003"/>
<path id="XMLID_214_" fill="#343433" d="M177.758,257.616l-12.597-9.713l-5.217-31.195c-0.005-0.038-0.019-0.067-0.025-0.105
	c-0.013-0.046-0.025-0.096-0.042-0.137c-0.029-0.113-0.075-0.218-0.125-0.313c-0.016-0.025-0.016-0.051-0.029-0.075
	c-0.008-0.004-0.015-0.013-0.021-0.021c-0.075-0.129-0.165-0.242-0.271-0.351c-0.017-0.017-0.036-0.028-0.052-0.054
	c-0.091-0.075-0.19-0.159-0.294-0.222c-0.034-0.017-0.064-0.033-0.096-0.05c-0.115-0.067-0.234-0.116-0.361-0.15
	c-0.017-0.008-0.027-0.013-0.048-0.018c-0.142-0.041-0.297-0.058-0.451-0.058c-0.009-0.004-0.017-0.004-0.021-0.004h-16.955
	c4.289-3.302,7.063-8.481,7.063-14.296c0-9.942-8.083-18.023-18.023-18.023c-9.938,0-18.023,8.081-18.023,18.023
	c0,5.814,2.773,10.994,7.064,14.296h-16.955c-0.013,0-0.023,0.004-0.036,0.004c-0.021,0-0.042-0.004-0.066,0
	c-0.134,0.004-0.258,0.025-0.379,0.058c-0.009,0-0.017,0.01-0.023,0.01c-0.135,0.037-0.261,0.091-0.382,0.158
	c-0.036,0.021-0.068,0.042-0.104,0.067c-0.094,0.059-0.182,0.12-0.263,0.191c-0.029,0.033-0.059,0.059-0.088,0.087
	c-0.1,0.105-0.192,0.218-0.265,0.348c-0.002,0-0.004,0-0.006,0.004c-0.009,0.017-0.013,0.029-0.021,0.05
	c-0.058,0.108-0.108,0.229-0.146,0.351c-0.013,0.042-0.021,0.084-0.032,0.134c-0.023,0.097-0.035,0.204-0.04,0.313
	c-0.004,0.047-0.008,0.088-0.008,0.134c0,0.021-0.004,0.042-0.004,0.059l1.688,30.695l-19.154,9.616
	c-0.919,0.459-1.292,1.582-0.832,2.505c0.33,0.647,0.984,1.022,1.669,1.022c0.28,0,0.568-0.063,0.837-0.196l20.246-10.159
	c0.664-0.334,1.069-1.031,1.025-1.773l-1.325-24.118l14.316,24.798l-29.823,14.171c-0.66,0.313-1.077,0.993-1.06,1.724
	c0.014,0.734,0.459,1.387,1.131,1.678l40.33,17.109c0.24,0.108,0.487,0.15,0.729,0.15c0.724,0,1.415-0.427,1.715-1.137
	c0.405-0.946-0.037-2.04-0.987-2.44l-36.509-15.494l26.343-12.525l7.824,13.553c0.332,0.576,0.947,0.93,1.613,0.93
	c0.668,0,1.281-0.354,1.615-0.93l8.125-14.071l25.759,12.243l-35.792,5.681c-1.018,0.158-1.711,1.118-1.548,2.133
	c0.146,0.918,0.938,1.573,1.841,1.573c0.094,0,0.192-0.008,0.294-0.025l41.731-6.628c0.806-0.125,1.434-0.765,1.55-1.569
	c0.117-0.81-0.305-1.599-1.043-1.953l-30.923-14.696l15.325-26.543l4.479,26.801c0.08,0.464,0.326,0.881,0.702,1.169l13.173,10.159
	c0.338,0.264,0.741,0.389,1.138,0.389c0.557,0,1.11-0.25,1.475-0.727C178.722,259.42,178.571,258.242,177.758,257.616z
	 M115.898,200.854c0-7.88,6.414-14.299,14.294-14.299c7.882,0,14.296,6.419,14.296,14.299c0,7.885-6.414,14.296-14.296,14.296
	C122.312,215.15,115.898,208.739,115.898,200.854z M130.192,261.631l-24.685-42.757h49.37L130.192,261.631z"/>
<rect id="XMLID_295_" x="28.625" y="17.584" fill="#50C0E8" width="203.201" height="34.415"/>
<path id="XMLID_293_" fill="#FFFFFF" d="M48.587,34.845l5.652-4.752c0.284-0.339,0.244-0.839-0.092-1.123
	c-0.332-0.283-0.833-0.242-1.119,0.092l-6.762,6.058c-0.009,0.013-0.017,0.025-0.024,0.042c-0.015,0.017-0.027,0.035-0.038,0.051
	c-0.016,0.025-0.029,0.053-0.042,0.076c-0.009,0.019-0.019,0.036-0.025,0.058c-0.011,0.027-0.022,0.055-0.029,0.088
	c-0.005,0.015-0.01,0.036-0.014,0.052c-0.01,0.046-0.014,0.096-0.014,0.142c0,0.004-0.001,0.004-0.001,0.008
	c0,0.004,0.001,0.008,0.001,0.008c0.001,0.046,0.004,0.092,0.014,0.138c0.004,0.021,0.011,0.04,0.016,0.058
	c0.007,0.029,0.016,0.054,0.025,0.08c0.009,0.025,0.019,0.046,0.028,0.067c0.011,0.021,0.024,0.046,0.038,0.064
	c0.013,0.023,0.026,0.042,0.043,0.061c0.008,0.015,0.013,0.025,0.021,0.036l6.762,5.741c0.159,0.188,0.38,0.281,0.608,0.281
	c0.182,0,0.361-0.064,0.511-0.188c0.336-0.285,0.375-0.783,0.092-1.121L48.59,36.43l-0.716-0.901L48.587,34.845z"/>
<text id="XMLID_292_" transform="matrix(1 0 0 1 93.3237 41.7412)" fill="#FFFFFF" font-family="'OpenSans'" font-size="15.2433">instructies</text>
<rect id="XMLID_291_" x="28.644" y="104.145" fill="#50C0E8" width="141.382" height="37.599"/>
<rect id="XMLID_290_" x="170.026" y="104.145" fill="#3AAED9" width="62.335" height="37.599"/>
<text id="XMLID_289_" transform="matrix(1 0 0 1 69.2769 121.6763)"><tspan x="0" y="0" fill="#FFFFFF" font-family="'Ubuntu-Light'" font-size="8.8919">Volg de </tspan><tspan x="32.197" y="0" fill="#FFFFFF" font-family="'Ubuntu-LightItalic'" font-size="8.8919">poses </tspan><tspan x="55.004" y="0" fill="#FFFFFF" font-family="'Ubuntu-Light'" font-size="8.8919">die </tspan><tspan x="-15.609" y="10.67" fill="#FFFFFF" font-family="'Ubuntu-Light'" font-size="8.8919">op het scherm te zien zijn</tspan></text>
<g id="XMLID_283_">
	<path id="XMLID_286_" fill="#FFFFFF" d="M203.998,114.438c-0.187-0.121-0.42-0.121-0.607,0l-6.689,4.236h-4.285
		c-1.019,0-1.849,0.91-1.849,2.029v4.482c0,1.119,0.831,2.029,1.849,2.029h4.285l6.689,4.236c0.094,0.063,0.198,0.092,0.3,0.092
		c0.109,0,0.214-0.029,0.308-0.092c0.189-0.117,0.304-0.338,0.304-0.581v-15.856C204.302,114.775,204.187,114.558,203.998,114.438z
		 M203.085,129.718l-5.916-3.749c-0.094-0.059-0.199-0.092-0.308-0.092h-4.444c-0.346,0-0.633-0.313-0.633-0.693v-4.482
		c0-0.384,0.287-0.693,0.633-0.693h4.444c0.109,0,0.214-0.034,0.308-0.087l5.916-3.749V129.718z"/>
	<path id="XMLID_285_" fill="#FFFFFF" d="M209.868,115.832c-0.304-0.201-0.718-0.13-0.926,0.179
		c-0.208,0.301-0.128,0.718,0.18,0.922c1.988,1.357,3.18,3.606,3.18,6.007c0,2.408-1.192,4.658-3.18,6.015
		c-0.308,0.205-0.387,0.617-0.18,0.922c0.129,0.192,0.342,0.293,0.555,0.293c0.125,0,0.258-0.038,0.371-0.118
		c2.363-1.603,3.767-4.257,3.767-7.112C213.635,120.097,212.23,117.438,209.868,115.832z"/>
	<path id="XMLID_284_" fill="#FFFFFF" d="M206.183,118.762c-0.356-0.092-0.727,0.116-0.82,0.467
		c-0.096,0.359,0.114,0.726,0.467,0.822c1.3,0.354,2.208,1.544,2.208,2.889c0,1.352-0.908,2.542-2.208,2.896
		c-0.353,0.096-0.563,0.459-0.467,0.818c0.081,0.297,0.353,0.498,0.644,0.498c0.055,0,0.117-0.013,0.176-0.034
		c1.875-0.51,3.188-2.225,3.188-4.178C209.371,120.999,208.057,119.279,206.183,118.762z"/>
</g>
<text id="XMLID_256_" transform="matrix(1 0 0 1 48.5342 75.9795)"><tspan x="0" y="0" fill="#343433" font-family="'Ubuntu'" font-size="11.4325">We adviseren je deze </tspan><tspan x="0" y="13.719" fill="#343433" font-family="'Ubuntu-Italic'" font-size="11.4325">yoga oefening</tspan><tspan x="71.086" y="13.719" fill="#343433" font-family="'Ubuntu'" font-size="11.4325"> te doen:</tspan></text>
<path id="XMLID_253_" fill="#E8573F" d="M204.476,364.193H61.816c-5.787,0-10.48-4.691-10.48-10.481v-9.954
	c0-5.79,4.694-10.481,10.48-10.481h142.659c5.785,0,10.479,4.691,10.479,10.481v9.954
	C214.954,359.502,210.26,364.193,204.476,364.193z"/>
<text id="XMLID_17_" transform="matrix(1 0 0 1 89.3506 353.4658)" fill="#FFFFFF" font-family="'Bariol-Regular'" font-size="15.2433">start oefening</text>
<rect x="263.747" y="17.906" fill="none" stroke="#3AAED9" stroke-width="2.138" stroke-miterlimit="10" width="203.145" height="368.159"/>
<path id="XMLID_118_" fill="#50C0E8" d="M437.402,361.081c0.064-0.216,0.142-0.427,0.191-0.646c0.227-0.938,0.443-1.877,0.669-2.859
	c0.365,0.08,0.721,0.154,1.073,0.234c0.309,0.07,0.618,0.142,0.922,0.217c0.139,0.034,0.214-0.004,0.297-0.129
	c0.401-0.584,0.806-1.165,1.233-1.733c0.116-0.154,0.156-0.246,0.038-0.421c-0.354-0.544-0.688-1.099-1.043-1.68
	c1.07-0.664,2.123-1.318,3.204-1.986c0.215,0.343,0.418,0.662,0.623,0.989c0.149,0.247,0.309,0.488,0.45,0.738
	c0.073,0.126,0.142,0.174,0.292,0.124c0.706-0.24,1.436-0.332,2.176-0.357c0.163-0.006,0.224-0.071,0.259-0.228
	c0.126-0.591,0.271-1.18,0.41-1.768c0.014-0.06,0.036-0.113,0.062-0.195c1.212,0.286,2.413,0.566,3.651,0.858
	c-0.041,0.196-0.077,0.38-0.118,0.563c-0.113,0.479-0.23,0.954-0.332,1.435c-0.015,0.073,0.01,0.212,0.061,0.239
	c0.728,0.394,1.395,0.874,1.993,1.455c0.635-0.392,1.251-0.773,1.901-1.175c0.159,0.254,0.324,0.499,0.479,0.747
	c0.469,0.752,0.93,1.508,1.404,2.256c0.099,0.153,0.085,0.227-0.077,0.325c-0.521,0.306-1.032,0.636-1.549,0.948
	c-0.123,0.076-0.144,0.151-0.115,0.301c0.132,0.702,0.253,1.411,0.353,2.121c0.027,0.184,0.066,0.271,0.261,0.309
	c0.549,0.113,1.096,0.248,1.642,0.379c0.091,0.02,0.181,0.05,0.295,0.081c-0.286,1.226-0.569,2.426-0.852,3.654
	c-0.164-0.029-0.307-0.055-0.447-0.089c-0.514-0.117-1.025-0.235-1.534-0.367c-0.141-0.033-0.22-0.02-0.295,0.116
	c-0.355,0.669-0.783,1.287-1.313,1.834c-0.05,0.052-0.041,0.218,0.003,0.293c0.34,0.567,0.696,1.131,1.068,1.729
	c-1.066,0.658-2.127,1.317-3.208,1.989c-0.281-0.449-0.556-0.87-0.814-1.307c-0.34-0.575-0.33-0.558-0.994-0.427
	c-0.556,0.108-1.125,0.169-1.69,0.229c-0.175,0.021-0.264,0.063-0.302,0.242c-0.144,0.643-0.301,1.277-0.463,1.956
	c-1.223-0.287-2.431-0.566-3.67-0.858c0.133-0.57,0.271-1.112,0.383-1.657c0.144-0.669,0.207-0.431-0.344-0.794
	c-0.481-0.317-0.941-0.673-1.389-1.035c-0.181-0.146-0.305-0.194-0.518-0.051c-0.478,0.322-0.981,0.61-1.466,0.923
	c-0.144,0.092-0.204,0.055-0.283-0.077c-0.616-1-1.237-1.998-1.876-3.025c0.409-0.26,0.814-0.514,1.22-0.768
	c0.222-0.142,0.539-0.24,0.627-0.443c0.079-0.184-0.105-0.476-0.142-0.724c-0.075-0.521-0.146-1.041-0.19-1.564
	c-0.015-0.184-0.072-0.259-0.247-0.3c-0.657-0.146-1.313-0.311-1.969-0.464C437.402,361.185,437.402,361.131,437.402,361.081z
	 M452.147,361.753c-0.005-2.463-1.946-4.41-4.41-4.418c-2.368-0.011-4.38,2.004-4.376,4.38c0.008,2.447,1.987,4.421,4.431,4.409
	C450.166,366.114,452.15,364.12,452.147,361.753z"/>
<line id="XMLID_117_" fill="none" stroke="#E8573F" stroke-width="4.2759" stroke-miterlimit="10" x1="365.318" y1="357.043" x2="365.318" y2="43.303"/>
<circle id="XMLID_116_" fill="#F26F54" stroke="#E8573F" stroke-width="4.2759" stroke-miterlimit="10" cx="366.187" cy="336.333" r="20.707"/>
<circle id="XMLID_115_" fill="#FFFFFF" stroke="#E8573F" stroke-width="4.2759" stroke-miterlimit="10" cx="366.187" cy="264.893" r="20.707"/>
<circle id="XMLID_114_" fill="#FFFFFF" stroke="#E8573F" stroke-width="4.2759" stroke-miterlimit="10" cx="366.187" cy="193.451" r="20.707"/>
<circle id="XMLID_113_" fill="#FFFFFF" stroke="#E8573F" stroke-width="4.2759" stroke-miterlimit="10" cx="366.187" cy="122.011" r="20.707"/>
<circle id="XMLID_112_" fill="#FFFFFF" stroke="#3AAED9" stroke-width="4.2759" stroke-miterlimit="10" cx="366.187" cy="50.571" r="20.707"/>
<rect id="XMLID_20_" x="349.302" y="39.764" fill="none" width="33.2" height="27.795"/>
<text transform="matrix(1 0 0 1 361.5459 50.9404)" fill="#000100" font-family="'Bariol-Regular'" font-size="15.6978">5</text>
<text transform="matrix(0.7 0 0 0.7 355.7656 62.4692)" fill="#000100" font-family="'Bariol-Regular'" font-size="15.6978">mrt</text>
<rect id="XMLID_107_" x="263.409" y="16.423" fill="#50C0E8" width="204.958" height="26.88"/>
<rect id="XMLID_101_" x="263.409" y="16.423" fill="#3AAED9" width="64.938" height="26.88"/>
<rect id="XMLID_16_" x="279.098" y="25.084" fill="none" width="179.008" height="14.68"/>
<text id="XMLID_51_" transform="matrix(1 0 0 1 279.0977 33.3262)"><tspan x="0" y="0" fill="#FFFFFF" font-family="'Bariol-Regular'" font-size="11.5764">tijdlijn</tspan><tspan x="26.325" y="0" fill="#FFFFFF" font-family="'Bariol-Light'" font-size="11.5764" letter-spacing="-1">	</tspan><tspan x="27.329" y="0" fill="#FFFFFF" font-family="'Bariol-Light'" font-size="11.5764" letter-spacing="3">						</tspan><tspan x="68.321" y="0" fill="#FFFFFF" font-family="'Bariol-Light'" font-size="11.5764">progressie</tspan><tspan x="114.337" y="0" fill="#FFFFFF" font-family="'Bariol-Light'" font-size="11.5764" letter-spacing="-1">	</tspan><tspan x="116.146" y="0" fill="#FFFFFF" font-family="'Bariol-Light'" font-size="11.5764" letter-spacing="3">				</tspan><tspan x="143.474" y="0" fill="#FFFFFF" font-family="'Bariol-Light'" font-size="11.5764"> aanval</tspan></text>
<rect id="XMLID_13_" x="349.302" y="323.825" fill="none" width="33.2" height="27.794"/>
<text transform="matrix(1 0 0 1 363.1465 335.002)" fill="#FFFFFF" font-family="'Bariol-Regular'" font-size="15.6978">1</text>
<text transform="matrix(0.7 0 0 0.7 355.7656 346.5313)" fill="#FFFFFF" font-family="'Bariol-Regular'" font-size="15.6978">mrt</text>
<rect id="XMLID_11_" x="349.302" y="253.331" fill="none" width="33.2" height="27.793"/>
<text transform="matrix(1 0 0 1 361.7266 264.5078)" fill="#000100" font-family="'Bariol-Regular'" font-size="15.6978">2</text>
<text transform="matrix(0.7 0 0 0.7 355.7656 276.0371)" fill="#000100" font-family="'Bariol-Regular'" font-size="15.6978">mrt</text>
<rect id="XMLID_7_" x="349.302" y="180.516" fill="none" width="33.2" height="27.797"/>
<text transform="matrix(1 0 0 1 361.6475 191.6924)" fill="#000100" font-family="'Bariol-Regular'" font-size="15.6978">3</text>
<text transform="matrix(0.7 0 0 0.7 355.7656 203.2217)" fill="#000100" font-family="'Bariol-Regular'" font-size="15.6978">mrt</text>
<rect id="XMLID_3_" x="349.302" y="109.407" fill="none" width="33.2" height="27.793"/>
<text transform="matrix(1 0 0 1 361.6631 120.584)" fill="#000100" font-family="'Bariol-Regular'" font-size="15.6978">4</text>
<text transform="matrix(0.7 0 0 0.7 355.7656 132.1128)" fill="#000100" font-family="'Bariol-Regular'" font-size="15.6978">mrt</text>
</svg>
